<svg xmlns="http://www.w3.org/2000/svg" version="1.1" xmlns:xlink="http://www.w3.org/1999/xlink" xmlns:svgjs="http://svgjs.com/svgjs" width="1440" height="560" preserveAspectRatio="none" viewBox="0 0 1440 560"><g mask="url(&quot;#SvgjsMask1024&quot;)" fill="none"><rect width="1440" height="560" x="0" y="0" fill="rgba(255, 255, 255, 1)"></rect><path d="M-58.71 365.83L-58.71 365.83" stroke="rgba(199, 204, 215, 1)" stroke-width="1.5"></path><path d="M-58.71 365.83L87.79 402.79" stroke="rgba(199, 204, 215, 1)" stroke-width="1.5"></path><path d="M-58.71 365.83L-78.05 521.41" stroke="rgba(199, 204, 215, 1)" stroke-width="1.5"></path><path d="M-58.71 365.83L63.7 506.54" stroke="rgba(199, 204, 215, 1)" stroke-width="1.5"></path><path d="M-58.71 365.83L244.98 394.21" stroke="rgba(199, 204, 215, 1)" stroke-width="1.5"></path><path d="M-58.71 365.83L-86.3 710.48" stroke="rgba(199, 204, 215, 1)" stroke-width="1.5"></path><path d="M-78.05 521.41L-78.05 521.41" stroke="rgba(199, 204, 215, 1)" stroke-width="1.5"></path><path d="M-78.05 521.41L63.7 506.54" stroke="rgba(199, 204, 215, 1)" stroke-width="1.5"></path><path d="M-78.05 521.41L-86.3 710.48" stroke="rgba(199, 204, 215, 1)" stroke-width="1.5"></path><path d="M-78.05 521.41L87.79 402.79" stroke="rgba(199, 204, 215, 1)" stroke-width="1.5"></path><path d="M-78.05 521.41L82.02 681.93" stroke="rgba(199, 204, 215, 1)" stroke-width="1.5"></path><path d="M-78.05 521.41L245.92 544.5" stroke="rgba(199, 204, 215, 1)" stroke-width="1.5"></path><path d="M-86.3 710.48L-86.3 710.48" stroke="rgba(199, 204, 215, 1)" stroke-width="1.5"></path><path d="M-86.3 710.48L82.02 681.93" stroke="rgba(199, 204, 215, 1)" stroke-width="1.5"></path><path d="M-86.3 710.48L63.7 506.54" stroke="rgba(199, 204, 215, 1)" stroke-width="1.5"></path><path d="M-86.3 710.48L224.03 683.9" stroke="rgba(199, 204, 215, 1)" stroke-width="1.5"></path><path d="M-86.3 710.48L87.79 402.79" stroke="rgba(199, 204, 215, 1)" stroke-width="1.5"></path><path d="M87.79 402.79L87.79 402.79" stroke="rgba(199, 204, 215, 1)" stroke-width="1.5"></path><path d="M87.79 402.79L63.7 506.54" stroke="rgba(199, 204, 215, 1)" stroke-width="1.5"></path><path d="M87.79 402.79L244.98 394.21" stroke="rgba(199, 204, 215, 1)" stroke-width="1.5"></path><path d="M63.7 506.54L63.7 506.54" stroke="rgba(199, 204, 215, 1)" stroke-width="1.5"></path><path d="M63.7 506.54L82.02 681.93" stroke="rgba(199, 204, 215, 1)" stroke-width="1.5"></path><path d="M63.7 506.54L245.92 544.5" stroke="rgba(199, 204, 215, 1)" stroke-width="1.5"></path><path d="M82.02 681.93L82.02 681.93" stroke="rgba(199, 204, 215, 1)" stroke-width="1.5"></path><path d="M82.02 681.93L224.03 683.9" stroke="rgba(199, 204, 215, 1)" stroke-width="1.5"></path><path d="M82.02 681.93L245.92 544.5" stroke="rgba(199, 204, 215, 1)" stroke-width="1.5"></path><path d="M244.98 394.21L244.98 394.21" stroke="rgba(199, 204, 215, 1)" stroke-width="1.5"></path><path d="M244.98 394.21L245.92 544.5" stroke="rgba(199, 204, 215, 1)" stroke-width="1.5"></path><path d="M244.98 394.21L406.59 376.07" stroke="rgba(199, 204, 215, 1)" stroke-width="1.5"></path><path d="M244.98 394.21L379.53 506.4" stroke="rgba(199, 204, 215, 1)" stroke-width="1.5"></path><path d="M245.92 544.5L245.92 544.5" stroke="rgba(199, 204, 215, 1)" stroke-width="1.5"></path><path d="M245.92 544.5L379.53 506.4" stroke="rgba(199, 204, 215, 1)" stroke-width="1.5"></path><path d="M245.92 544.5L224.03 683.9" stroke="rgba(199, 204, 215, 1)" stroke-width="1.5"></path><path d="M245.92 544.5L356.29 646.63" stroke="rgba(199, 204, 215, 1)" stroke-width="1.5"></path><path d="M224.03 683.9L224.03 683.9" stroke="rgba(199, 204, 215, 1)" stroke-width="1.5"></path><path d="M224.03 683.9L356.29 646.63" stroke="rgba(199, 204, 215, 1)" stroke-width="1.5"></path><path d="M224.03 683.9L379.53 506.4" stroke="rgba(199, 204, 215, 1)" stroke-width="1.5"></path><path d="M224.03 683.9L63.7 506.54" stroke="rgba(199, 204, 215, 1)" stroke-width="1.5"></path><path d="M406.59 376.07L406.59 376.07" stroke="rgba(199, 204, 215, 1)" stroke-width="1.5"></path><path d="M406.59 376.07L512.61 345.26" stroke="rgba(199, 204, 215, 1)" stroke-width="1.5"></path><path d="M406.59 376.07L379.53 506.4" stroke="rgba(199, 204, 215, 1)" stroke-width="1.5"></path><path d="M406.59 376.07L518.79 491.91" stroke="rgba(199, 204, 215, 1)" stroke-width="1.5"></path><path d="M406.59 376.07L245.92 544.5" stroke="rgba(199, 204, 215, 1)" stroke-width="1.5"></path><path d="M379.53 506.4L379.53 506.4" stroke="rgba(199, 204, 215, 1)" stroke-width="1.5"></path><path d="M356.29 646.63L356.29 646.63" stroke="rgba(199, 204, 215, 1)" stroke-width="1.5"></path><path d="M356.29 646.63L379.53 506.4" stroke="rgba(199, 204, 215, 1)" stroke-width="1.5"></path><path d="M512.61 345.26L512.61 345.26" stroke="rgba(199, 204, 215, 1)" stroke-width="1.5"></path><path d="M512.61 345.26L518.79 491.91" stroke="rgba(199, 204, 215, 1)" stroke-width="1.5"></path><path d="M518.79 491.91L518.79 491.91" stroke="rgba(199, 204, 215, 1)" stroke-width="1.5"></path><path d="M518.79 491.91L379.53 506.4" stroke="rgba(199, 204, 215, 1)" stroke-width="1.5"></path><path d="M518.79 491.91L658.89 500.44" stroke="rgba(199, 204, 215, 1)" stroke-width="1.5"></path><path d="M518.79 491.91L553.3 655.08" stroke="rgba(199, 204, 215, 1)" stroke-width="1.5"></path><path d="M553.3 655.08L553.3 655.08" stroke="rgba(199, 204, 215, 1)" stroke-width="1.5"></path><path d="M553.3 655.08L665.6 683.46" stroke="rgba(199, 204, 215, 1)" stroke-width="1.5"></path><path d="M695.63 249.38L695.63 249.38" stroke="rgba(199, 204, 215, 1)" stroke-width="1.5"></path><path d="M695.63 249.38L698.28 358.63" stroke="rgba(199, 204, 215, 1)" stroke-width="1.5"></path><path d="M695.63 249.38L825.79 213.65" stroke="rgba(199, 204, 215, 1)" stroke-width="1.5"></path><path d="M698.28 358.63L698.28 358.63" stroke="rgba(199, 204, 215, 1)" stroke-width="1.5"></path><path d="M698.28 358.63L807.23 341.66" stroke="rgba(199, 204, 215, 1)" stroke-width="1.5"></path><path d="M698.28 358.63L658.89 500.44" stroke="rgba(199, 204, 215, 1)" stroke-width="1.5"></path><path d="M658.89 500.44L658.89 500.44" stroke="rgba(199, 204, 215, 1)" stroke-width="1.5"></path><path d="M658.89 500.44L814.15 555.03" stroke="rgba(199, 204, 215, 1)" stroke-width="1.5"></path><path d="M658.89 500.44L665.6 683.46" stroke="rgba(199, 204, 215, 1)" stroke-width="1.5"></path><path d="M665.6 683.46L665.6 683.46" stroke="rgba(199, 204, 215, 1)" stroke-width="1.5"></path><path d="M665.6 683.46L856.71 692" stroke="rgba(199, 204, 215, 1)" stroke-width="1.5"></path><path d="M665.6 683.46L814.15 555.03" stroke="rgba(199, 204, 215, 1)" stroke-width="1.5"></path><path d="M665.6 683.46L518.79 491.91" stroke="rgba(199, 204, 215, 1)" stroke-width="1.5"></path><path d="M665.6 683.46L356.29 646.63" stroke="rgba(199, 204, 215, 1)" stroke-width="1.5"></path><path d="M825.79 213.65L825.79 213.65" stroke="rgba(199, 204, 215, 1)" stroke-width="1.5"></path><path d="M825.79 213.65L948.37 242.66" stroke="rgba(199, 204, 215, 1)" stroke-width="1.5"></path><path d="M825.79 213.65L807.23 341.66" stroke="rgba(199, 204, 215, 1)" stroke-width="1.5"></path><path d="M807.23 341.66L807.23 341.66" stroke="rgba(199, 204, 215, 1)" stroke-width="1.5"></path><path d="M807.23 341.66L695.63 249.38" stroke="rgba(199, 204, 215, 1)" stroke-width="1.5"></path><path d="M807.23 341.66L948.37 242.66" stroke="rgba(199, 204, 215, 1)" stroke-width="1.5"></path><path d="M807.23 341.66L1009.02 366.42" stroke="rgba(199, 204, 215, 1)" stroke-width="1.5"></path><path d="M807.23 341.66L814.15 555.03" stroke="rgba(199, 204, 215, 1)" stroke-width="1.5"></path><path d="M814.15 555.03L814.15 555.03" stroke="rgba(199, 204, 215, 1)" stroke-width="1.5"></path><path d="M814.15 555.03L856.71 692" stroke="rgba(199, 204, 215, 1)" stroke-width="1.5"></path><path d="M814.15 555.03L964.29 522.03" stroke="rgba(199, 204, 215, 1)" stroke-width="1.5"></path><path d="M856.71 692L856.71 692" stroke="rgba(199, 204, 215, 1)" stroke-width="1.5"></path><path d="M856.71 692L1000.87 670.9" stroke="rgba(199, 204, 215, 1)" stroke-width="1.5"></path><path d="M856.71 692L964.29 522.03" stroke="rgba(199, 204, 215, 1)" stroke-width="1.5"></path><path d="M981.95 -87.83L981.95 -87.83" stroke="rgba(199, 204, 215, 1)" stroke-width="1.5"></path><path d="M981.95 -87.83L992.1 48.16" stroke="rgba(199, 204, 215, 1)" stroke-width="1.5"></path><path d="M981.95 -87.83L1117.32 -69.55" stroke="rgba(199, 204, 215, 1)" stroke-width="1.5"></path><path d="M992.1 48.16L992.1 48.16" stroke="rgba(199, 204, 215, 1)" stroke-width="1.5"></path><path d="M992.1 48.16L1144.22 61" stroke="rgba(199, 204, 215, 1)" stroke-width="1.5"></path><path d="M992.1 48.16L1117.32 -69.55" stroke="rgba(199, 204, 215, 1)" stroke-width="1.5"></path><path d="M992.1 48.16L948.37 242.66" stroke="rgba(199, 204, 215, 1)" stroke-width="1.5"></path><path d="M992.1 48.16L1145 221.77" stroke="rgba(199, 204, 215, 1)" stroke-width="1.5"></path><path d="M948.37 242.66L948.37 242.66" stroke="rgba(199, 204, 215, 1)" stroke-width="1.5"></path><path d="M948.37 242.66L1009.02 366.42" stroke="rgba(199, 204, 215, 1)" stroke-width="1.5"></path><path d="M948.37 242.66L1145 221.77" stroke="rgba(199, 204, 215, 1)" stroke-width="1.5"></path><path d="M1009.02 366.42L1009.02 366.42" stroke="rgba(199, 204, 215, 1)" stroke-width="1.5"></path><path d="M1009.02 366.42L1144.31 343.1" stroke="rgba(199, 204, 215, 1)" stroke-width="1.5"></path><path d="M1009.02 366.42L964.29 522.03" stroke="rgba(199, 204, 215, 1)" stroke-width="1.5"></path><path d="M964.29 522.03L964.29 522.03" stroke="rgba(199, 204, 215, 1)" stroke-width="1.5"></path><path d="M964.29 522.03L1000.87 670.9" stroke="rgba(199, 204, 215, 1)" stroke-width="1.5"></path><path d="M1000.87 670.9L1000.87 670.9" stroke="rgba(199, 204, 215, 1)" stroke-width="1.5"></path><path d="M1000.87 670.9L1136.6 644.58" stroke="rgba(199, 204, 215, 1)" stroke-width="1.5"></path><path d="M1000.87 670.9L1148.92 519.83" stroke="rgba(199, 204, 215, 1)" stroke-width="1.5"></path><path d="M1000.87 670.9L814.15 555.03" stroke="rgba(199, 204, 215, 1)" stroke-width="1.5"></path><path d="M1000.87 670.9L1300.69 683.97" stroke="rgba(199, 204, 215, 1)" stroke-width="1.5"></path><path d="M1117.32 -69.55L1117.32 -69.55" stroke="rgba(199, 204, 215, 1)" stroke-width="1.5"></path><path d="M1117.32 -69.55L1245.62 -100.13" stroke="rgba(199, 204, 215, 1)" stroke-width="1.5"></path><path d="M1117.32 -69.55L1144.22 61" stroke="rgba(199, 204, 215, 1)" stroke-width="1.5"></path><path d="M1144.22 61L1144.22 61" stroke="rgba(199, 204, 215, 1)" stroke-width="1.5"></path><path d="M1144.22 61L1302.56 68.68" stroke="rgba(199, 204, 215, 1)" stroke-width="1.5"></path><path d="M1144.22 61L1145 221.77" stroke="rgba(199, 204, 215, 1)" stroke-width="1.5"></path><path d="M1144.22 61L1284.29 188.72" stroke="rgba(199, 204, 215, 1)" stroke-width="1.5"></path><path d="M1144.22 61L1245.62 -100.13" stroke="rgba(199, 204, 215, 1)" stroke-width="1.5"></path><path d="M1145 221.77L1145 221.77" stroke="rgba(199, 204, 215, 1)" stroke-width="1.5"></path><path d="M1145 221.77L1144.31 343.1" stroke="rgba(199, 204, 215, 1)" stroke-width="1.5"></path><path d="M1145 221.77L1284.29 188.72" stroke="rgba(199, 204, 215, 1)" stroke-width="1.5"></path><path d="M1145 221.77L1262.51 345.96" stroke="rgba(199, 204, 215, 1)" stroke-width="1.5"></path><path d="M1145 221.77L1009.02 366.42" stroke="rgba(199, 204, 215, 1)" stroke-width="1.5"></path><path d="M1144.31 343.1L1144.31 343.1" stroke="rgba(199, 204, 215, 1)" stroke-width="1.5"></path><path d="M1144.31 343.1L1262.51 345.96" stroke="rgba(199, 204, 215, 1)" stroke-width="1.5"></path><path d="M1148.92 519.83L1148.92 519.83" stroke="rgba(199, 204, 215, 1)" stroke-width="1.5"></path><path d="M1148.92 519.83L1136.6 644.58" stroke="rgba(199, 204, 215, 1)" stroke-width="1.5"></path><path d="M1148.92 519.83L1310.21 532.14" stroke="rgba(199, 204, 215, 1)" stroke-width="1.5"></path><path d="M1148.92 519.83L1144.31 343.1" stroke="rgba(199, 204, 215, 1)" stroke-width="1.5"></path><path d="M1148.92 519.83L964.29 522.03" stroke="rgba(199, 204, 215, 1)" stroke-width="1.5"></path><path d="M1148.92 519.83L1009.02 366.42" stroke="rgba(199, 204, 215, 1)" stroke-width="1.5"></path><path d="M1136.6 644.58L1136.6 644.58" stroke="rgba(199, 204, 215, 1)" stroke-width="1.5"></path><path d="M1245.62 -100.13L1245.62 -100.13" stroke="rgba(199, 204, 215, 1)" stroke-width="1.5"></path><path d="M1245.62 -100.13L1302.56 68.68" stroke="rgba(199, 204, 215, 1)" stroke-width="1.5"></path><path d="M1245.62 -100.13L1422.53 -45.9" stroke="rgba(199, 204, 215, 1)" stroke-width="1.5"></path><path d="M1245.62 -100.13L981.95 -87.83" stroke="rgba(199, 204, 215, 1)" stroke-width="1.5"></path><path d="M1302.56 68.68L1302.56 68.68" stroke="rgba(199, 204, 215, 1)" stroke-width="1.5"></path><path d="M1302.56 68.68L1284.29 188.72" stroke="rgba(199, 204, 215, 1)" stroke-width="1.5"></path><path d="M1302.56 68.68L1461.6 98.58" stroke="rgba(199, 204, 215, 1)" stroke-width="1.5"></path><path d="M1284.29 188.72L1284.29 188.72" stroke="rgba(199, 204, 215, 1)" stroke-width="1.5"></path><path d="M1284.29 188.72L1407.48 237.67" stroke="rgba(199, 204, 215, 1)" stroke-width="1.5"></path><path d="M1262.51 345.96L1262.51 345.96" stroke="rgba(199, 204, 215, 1)" stroke-width="1.5"></path><path d="M1262.51 345.96L1284.29 188.72" stroke="rgba(199, 204, 215, 1)" stroke-width="1.5"></path><path d="M1310.21 532.14L1310.21 532.14" stroke="rgba(199, 204, 215, 1)" stroke-width="1.5"></path><path d="M1310.21 532.14L1396.22 559.45" stroke="rgba(199, 204, 215, 1)" stroke-width="1.5"></path><path d="M1310.21 532.14L1300.69 683.97" stroke="rgba(199, 204, 215, 1)" stroke-width="1.5"></path><path d="M1310.21 532.14L1442.48 668.21" stroke="rgba(199, 204, 215, 1)" stroke-width="1.5"></path><path d="M1310.21 532.14L1262.51 345.96" stroke="rgba(199, 204, 215, 1)" stroke-width="1.5"></path><path d="M1310.21 532.14L1136.6 644.58" stroke="rgba(199, 204, 215, 1)" stroke-width="1.5"></path><path d="M1300.69 683.97L1300.69 683.97" stroke="rgba(199, 204, 215, 1)" stroke-width="1.5"></path><path d="M1300.69 683.97L1442.48 668.21" stroke="rgba(199, 204, 215, 1)" stroke-width="1.5"></path><path d="M1300.69 683.97L1396.22 559.45" stroke="rgba(199, 204, 215, 1)" stroke-width="1.5"></path><path d="M1300.69 683.97L1136.6 644.58" stroke="rgba(199, 204, 215, 1)" stroke-width="1.5"></path><path d="M1300.69 683.97L1148.92 519.83" stroke="rgba(199, 204, 215, 1)" stroke-width="1.5"></path><path d="M1422.53 -45.9L1422.53 -45.9" stroke="rgba(199, 204, 215, 1)" stroke-width="1.5"></path><path d="M1422.53 -45.9L1461.6 98.58" stroke="rgba(199, 204, 215, 1)" stroke-width="1.5"></path><path d="M1422.53 -45.9L1302.56 68.68" stroke="rgba(199, 204, 215, 1)" stroke-width="1.5"></path><path d="M1422.53 -45.9L1569.21 43.07" stroke="rgba(199, 204, 215, 1)" stroke-width="1.5"></path><path d="M1422.53 -45.9L1594.4 -83.61" stroke="rgba(199, 204, 215, 1)" stroke-width="1.5"></path><path d="M1461.6 98.58L1461.6 98.58" stroke="rgba(199, 204, 215, 1)" stroke-width="1.5"></path><path d="M1461.6 98.58L1569.21 43.07" stroke="rgba(199, 204, 215, 1)" stroke-width="1.5"></path><path d="M1461.6 98.58L1407.48 237.67" stroke="rgba(199, 204, 215, 1)" stroke-width="1.5"></path><path d="M1407.48 237.67L1407.48 237.67" stroke="rgba(199, 204, 215, 1)" stroke-width="1.5"></path><path d="M1407.48 237.67L1449.18 351.05" stroke="rgba(199, 204, 215, 1)" stroke-width="1.5"></path><path d="M1449.18 351.05L1449.18 351.05" stroke="rgba(199, 204, 215, 1)" stroke-width="1.5"></path><path d="M1449.18 351.05L1548.8 351.6" stroke="rgba(199, 204, 215, 1)" stroke-width="1.5"></path><path d="M1449.18 351.05L1262.51 345.96" stroke="rgba(199, 204, 215, 1)" stroke-width="1.5"></path><path d="M1449.18 351.05L1597.99 221.67" stroke="rgba(199, 204, 215, 1)" stroke-width="1.5"></path><path d="M1449.18 351.05L1396.22 559.45" stroke="rgba(199, 204, 215, 1)" stroke-width="1.5"></path><path d="M1449.18 351.05L1310.21 532.14" stroke="rgba(199, 204, 215, 1)" stroke-width="1.5"></path><path d="M1396.22 559.45L1396.22 559.45" stroke="rgba(199, 204, 215, 1)" stroke-width="1.5"></path><path d="M1396.22 559.45L1442.48 668.21" stroke="rgba(199, 204, 215, 1)" stroke-width="1.5"></path><path d="M1396.22 559.45L1547.08 685.04" stroke="rgba(199, 204, 215, 1)" stroke-width="1.5"></path><path d="M1396.22 559.45L1602.98 523.68" stroke="rgba(199, 204, 215, 1)" stroke-width="1.5"></path><path d="M1442.48 668.21L1442.48 668.21" stroke="rgba(199, 204, 215, 1)" stroke-width="1.5"></path><path d="M1442.48 668.21L1547.08 685.04" stroke="rgba(199, 204, 215, 1)" stroke-width="1.5"></path><path d="M1594.4 -83.61L1594.4 -83.61" stroke="rgba(199, 204, 215, 1)" stroke-width="1.5"></path><path d="M1594.4 -83.61L1569.21 43.07" stroke="rgba(199, 204, 215, 1)" stroke-width="1.5"></path><path d="M1594.4 -83.61L1461.6 98.58" stroke="rgba(199, 204, 215, 1)" stroke-width="1.5"></path><path d="M1569.21 43.07L1569.21 43.07" stroke="rgba(199, 204, 215, 1)" stroke-width="1.5"></path><path d="M1569.21 43.07L1597.99 221.67" stroke="rgba(199, 204, 215, 1)" stroke-width="1.5"></path><path d="M1569.21 43.07L1407.48 237.67" stroke="rgba(199, 204, 215, 1)" stroke-width="1.5"></path><path d="M1597.99 221.67L1597.99 221.67" stroke="rgba(199, 204, 215, 1)" stroke-width="1.5"></path><path d="M1597.99 221.67L1548.8 351.6" stroke="rgba(199, 204, 215, 1)" stroke-width="1.5"></path><path d="M1597.99 221.67L1461.6 98.58" stroke="rgba(199, 204, 215, 1)" stroke-width="1.5"></path><path d="M1597.99 221.67L1407.48 237.67" stroke="rgba(199, 204, 215, 1)" stroke-width="1.5"></path><path d="M1597.99 221.67L1602.98 523.68" stroke="rgba(199, 204, 215, 1)" stroke-width="1.5"></path><path d="M1548.8 351.6L1548.8 351.6" stroke="rgba(199, 204, 215, 1)" stroke-width="1.5"></path><path d="M1602.98 523.68L1602.98 523.68" stroke="rgba(199, 204, 215, 1)" stroke-width="1.5"></path><path d="M1602.98 523.68L1547.08 685.04" stroke="rgba(199, 204, 215, 1)" stroke-width="1.5"></path><path d="M1547.08 685.04L1547.08 685.04" stroke="rgba(199, 204, 215, 1)" stroke-width="1.5"></path><circle r="5" cx="-58.71" cy="365.83" fill="rgba(199, 204, 215, 1)"></circle><circle r="5" cx="-78.05" cy="521.41" fill="rgba(199, 204, 215, 1)"></circle><circle r="5" cx="-86.3" cy="710.48" fill="rgba(199, 204, 215, 1)"></circle><circle r="5" cx="87.79" cy="402.79" fill="rgba(199, 204, 215, 1)"></circle><circle r="5" cx="63.7" cy="506.54" fill="rgba(199, 204, 215, 1)"></circle><circle r="5" cx="82.02" cy="681.93" fill="rgba(199, 204, 215, 1)"></circle><circle r="5" cx="244.98" cy="394.21" fill="rgba(199, 204, 215, 1)"></circle><circle r="5" cx="245.92" cy="544.5" fill="rgba(199, 204, 215, 1)"></circle><circle r="5" cx="224.03" cy="683.9" fill="rgba(199, 204, 215, 1)"></circle><circle r="5" cx="406.59" cy="376.07" fill="rgba(199, 204, 215, 1)"></circle><circle r="5" cx="379.53" cy="506.4" fill="rgba(199, 204, 215, 1)"></circle><circle r="5" cx="356.29" cy="646.63" fill="rgba(199, 204, 215, 1)"></circle><circle r="5" cx="512.61" cy="345.26" fill="rgba(199, 204, 215, 1)"></circle><circle r="5" cx="518.79" cy="491.91" fill="rgba(199, 204, 215, 1)"></circle><circle r="5" cx="553.3" cy="655.08" fill="rgba(199, 204, 215, 1)"></circle><circle r="5" cx="695.63" cy="249.38" fill="rgba(199, 204, 215, 1)"></circle><circle r="5" cx="698.28" cy="358.63" fill="rgba(199, 204, 215, 1)"></circle><circle r="5" cx="658.89" cy="500.44" fill="rgba(199, 204, 215, 1)"></circle><circle r="5" cx="665.6" cy="683.46" fill="rgba(199, 204, 215, 1)"></circle><circle r="5" cx="825.79" cy="213.65" fill="rgba(199, 204, 215, 1)"></circle><circle r="5" cx="807.23" cy="341.66" fill="rgba(199, 204, 215, 1)"></circle><circle r="5" cx="814.15" cy="555.03" fill="rgba(199, 204, 215, 1)"></circle><circle r="5" cx="856.71" cy="692" fill="rgba(199, 204, 215, 1)"></circle><circle r="5" cx="981.95" cy="-87.83" fill="rgba(199, 204, 215, 1)"></circle><circle r="5" cx="992.1" cy="48.16" fill="rgba(199, 204, 215, 1)"></circle><circle r="5" cx="948.37" cy="242.66" fill="rgba(199, 204, 215, 1)"></circle><circle r="5" cx="1009.02" cy="366.42" fill="rgba(199, 204, 215, 1)"></circle><circle r="5" cx="964.29" cy="522.03" fill="rgba(199, 204, 215, 1)"></circle><circle r="5" cx="1000.87" cy="670.9" fill="rgba(199, 204, 215, 1)"></circle><circle r="5" cx="1117.32" cy="-69.55" fill="rgba(199, 204, 215, 1)"></circle><circle r="5" cx="1144.22" cy="61" fill="rgba(199, 204, 215, 1)"></circle><circle r="5" cx="1145" cy="221.77" fill="rgba(199, 204, 215, 1)"></circle><circle r="5" cx="1144.31" cy="343.1" fill="rgba(199, 204, 215, 1)"></circle><circle r="5" cx="1148.92" cy="519.83" fill="rgba(199, 204, 215, 1)"></circle><circle r="5" cx="1136.6" cy="644.58" fill="rgba(199, 204, 215, 1)"></circle><circle r="5" cx="1245.62" cy="-100.13" fill="rgba(199, 204, 215, 1)"></circle><circle r="5" cx="1302.56" cy="68.68" fill="rgba(199, 204, 215, 1)"></circle><circle r="5" cx="1284.29" cy="188.72" fill="rgba(199, 204, 215, 1)"></circle><circle r="5" cx="1262.51" cy="345.96" fill="rgba(199, 204, 215, 1)"></circle><circle r="5" cx="1310.21" cy="532.14" fill="rgba(199, 204, 215, 1)"></circle><circle r="5" cx="1300.69" cy="683.97" fill="rgba(199, 204, 215, 1)"></circle><circle r="5" cx="1422.53" cy="-45.9" fill="rgba(199, 204, 215, 1)"></circle><circle r="5" cx="1461.6" cy="98.58" fill="rgba(199, 204, 215, 1)"></circle><circle r="5" cx="1407.48" cy="237.67" fill="rgba(199, 204, 215, 1)"></circle><circle r="5" cx="1449.18" cy="351.05" fill="rgba(199, 204, 215, 1)"></circle><circle r="5" cx="1396.22" cy="559.45" fill="rgba(199, 204, 215, 1)"></circle><circle r="5" cx="1442.48" cy="668.21" fill="rgba(199, 204, 215, 1)"></circle><circle r="5" cx="1594.4" cy="-83.61" fill="rgba(199, 204, 215, 1)"></circle><circle r="5" cx="1569.21" cy="43.07" fill="rgba(199, 204, 215, 1)"></circle><circle r="5" cx="1597.99" cy="221.67" fill="rgba(199, 204, 215, 1)"></circle><circle r="5" cx="1548.8" cy="351.6" fill="rgba(199, 204, 215, 1)"></circle><circle r="5" cx="1602.98" cy="523.68" fill="rgba(199, 204, 215, 1)"></circle><circle r="5" cx="1547.08" cy="685.04" fill="rgba(199, 204, 215, 1)"></circle><path d="M246.2 516.44L246.2 516.44" stroke="hsl(0, 3.1%, 80.5%)" stroke-width="1.5"></path><path d="M246.2 516.44L376.31 499.4" stroke="hsl(0, 3.1%, 80.5%)" stroke-width="1.5"></path><path d="M246.2 516.44L106.04 498.46" stroke="hsl(0, 3.1%, 80.5%)" stroke-width="1.5"></path><path d="M246.2 516.44L231.62 689.65" stroke="hsl(0, 3.1%, 80.5%)" stroke-width="1.5"></path><path d="M246.2 516.44L379.89 667.88" stroke="hsl(0, 3.1%, 80.5%)" stroke-width="1.5"></path><path d="M246.2 516.44L494.85 561.3" stroke="hsl(0, 3.1%, 80.5%)" stroke-width="1.5"></path><path d="M673.13 643.67L673.13 643.67" stroke="hsl(0, 3.1%, 80.5%)" stroke-width="1.5"></path><path d="M673.13 643.67L807.39 683.28" stroke="hsl(0, 3.1%, 80.5%)" stroke-width="1.5"></path><path d="M673.13 643.67L706.1 505.77" stroke="hsl(0, 3.1%, 80.5%)" stroke-width="1.5"></path><path d="M673.13 643.67L500.59 686.26" stroke="hsl(0, 3.1%, 80.5%)" stroke-width="1.5"></path><path d="M673.13 643.67L494.85 561.3" stroke="hsl(0, 3.1%, 80.5%)" stroke-width="1.5"></path><path d="M673.13 643.67L857.24 510.62" stroke="hsl(0, 3.1%, 80.5%)" stroke-width="1.5"></path><path d="M673.13 643.67L638.26 386" stroke="hsl(0, 3.1%, 80.5%)" stroke-width="1.5"></path><path d="M827.13 383.5L827.13 383.5" stroke="hsl(0, 3.1%, 80.5%)" stroke-width="1.5"></path><path d="M827.13 383.5L857.24 510.62" stroke="hsl(0, 3.1%, 80.5%)" stroke-width="1.5"></path><path d="M827.13 383.5L989.74 372.53" stroke="hsl(0, 3.1%, 80.5%)" stroke-width="1.5"></path><path d="M827.13 383.5L706.1 505.77" stroke="hsl(0, 3.1%, 80.5%)" stroke-width="1.5"></path><path d="M827.13 383.5L638.26 386" stroke="hsl(0, 3.1%, 80.5%)" stroke-width="1.5"></path><path d="M827.13 383.5L982.76 511.57" stroke="hsl(0, 3.1%, 80.5%)" stroke-width="1.5"></path><path d="M827.13 383.5L1120.52 363.83" stroke="hsl(0, 3.1%, 80.5%)" stroke-width="1.5"></path><path d="M807.39 683.28L807.39 683.28" stroke="hsl(0, 3.1%, 80.5%)" stroke-width="1.5"></path><path d="M807.39 683.28L857.24 510.62" stroke="hsl(0, 3.1%, 80.5%)" stroke-width="1.5"></path><path d="M807.39 683.28L706.1 505.77" stroke="hsl(0, 3.1%, 80.5%)" stroke-width="1.5"></path><path d="M807.39 683.28L982.76 511.57" stroke="hsl(0, 3.1%, 80.5%)" stroke-width="1.5"></path><path d="M807.39 683.28L827.13 383.5" stroke="hsl(0, 3.1%, 80.5%)" stroke-width="1.5"></path><path d="M1141.21 66.57L1141.21 66.57" stroke="hsl(0, 3.1%, 80.5%)" stroke-width="1.5"></path><path d="M1141.21 66.57L1158.34 -47.71" stroke="hsl(0, 3.1%, 80.5%)" stroke-width="1.5"></path><path d="M1141.21 66.57L1266.64 108.35" stroke="hsl(0, 3.1%, 80.5%)" stroke-width="1.5"></path><path d="M1141.21 66.57L1112 199.35" stroke="hsl(0, 3.1%, 80.5%)" stroke-width="1.5"></path><path d="M1120.52 363.83L1120.52 363.83" stroke="hsl(0, 3.1%, 80.5%)" stroke-width="1.5"></path><path d="M1120.52 363.83L989.74 372.53" stroke="hsl(0, 3.1%, 80.5%)" stroke-width="1.5"></path><path d="M1120.52 363.83L1137.08 514.73" stroke="hsl(0, 3.1%, 80.5%)" stroke-width="1.5"></path><path d="M1248.98 -40.33L1248.98 -40.33" stroke="hsl(0, 3.1%, 80.5%)" stroke-width="1.5"></path><path d="M1248.98 -40.33L1158.34 -47.71" stroke="hsl(0, 3.1%, 80.5%)" stroke-width="1.5"></path><path d="M1248.98 -40.33L1266.64 108.35" stroke="hsl(0, 3.1%, 80.5%)" stroke-width="1.5"></path><path d="M1248.98 -40.33L1141.21 66.57" stroke="hsl(0, 3.1%, 80.5%)" stroke-width="1.5"></path><path d="M1248.98 -40.33L1420.77 -79.02" stroke="hsl(0, 3.1%, 80.5%)" stroke-width="1.5"></path><path d="M1420.77 -79.02L1420.77 -79.02" stroke="hsl(0, 3.1%, 80.5%)" stroke-width="1.5"></path><path d="M1420.77 -79.02L1574.29 -67.55" stroke="hsl(0, 3.1%, 80.5%)" stroke-width="1.5"></path><path d="M1420.77 -79.02L1564.87 64.06" stroke="hsl(0, 3.1%, 80.5%)" stroke-width="1.5"></path><path d="M1587.06 406.26L1587.06 406.26" stroke="hsl(0, 3.1%, 80.5%)" stroke-width="1.5"></path><path d="M1587.06 406.26L1550.52 525.59" stroke="hsl(0, 3.1%, 80.5%)" stroke-width="1.5"></path><path d="M1587.06 406.26L1565.1 222.71" stroke="hsl(0, 3.1%, 80.5%)" stroke-width="1.5"></path><path d="M-99.12 545.29L-99.12 545.29" stroke="hsl(0, 3.1%, 80.5%)" stroke-width="1.5"></path><path d="M-99.12 545.29L-71.04 668.92" stroke="hsl(0, 3.1%, 80.5%)" stroke-width="1.5"></path><path d="M-99.12 545.29L48.1 681.81" stroke="hsl(0, 3.1%, 80.5%)" stroke-width="1.5"></path><path d="M-99.12 545.29L106.04 498.46" stroke="hsl(0, 3.1%, 80.5%)" stroke-width="1.5"></path><path d="M-71.04 668.92L-71.04 668.92" stroke="hsl(0, 3.1%, 80.5%)" stroke-width="1.5"></path><path d="M-71.04 668.92L48.1 681.81" stroke="hsl(0, 3.1%, 80.5%)" stroke-width="1.5"></path><path d="M-71.04 668.92L106.04 498.46" stroke="hsl(0, 3.1%, 80.5%)" stroke-width="1.5"></path><path d="M-71.04 668.92L231.62 689.65" stroke="hsl(0, 3.1%, 80.5%)" stroke-width="1.5"></path><path d="M-71.04 668.92L246.2 516.44" stroke="hsl(0, 3.1%, 80.5%)" stroke-width="1.5"></path><path d="M-71.04 668.92L379.89 667.88" stroke="hsl(0, 3.1%, 80.5%)" stroke-width="1.5"></path><path d="M106.04 498.46L106.04 498.46" stroke="hsl(0, 3.1%, 80.5%)" stroke-width="1.5"></path><path d="M106.04 498.46L48.1 681.81" stroke="hsl(0, 3.1%, 80.5%)" stroke-width="1.5"></path><path d="M48.1 681.81L48.1 681.81" stroke="hsl(0, 3.1%, 80.5%)" stroke-width="1.5"></path><path d="M48.1 681.81L231.62 689.65" stroke="hsl(0, 3.1%, 80.5%)" stroke-width="1.5"></path><path d="M48.1 681.81L246.2 516.44" stroke="hsl(0, 3.1%, 80.5%)" stroke-width="1.5"></path><path d="M48.1 681.81L379.89 667.88" stroke="hsl(0, 3.1%, 80.5%)" stroke-width="1.5"></path><path d="M231.62 689.65L231.62 689.65" stroke="hsl(0, 3.1%, 80.5%)" stroke-width="1.5"></path><path d="M231.62 689.65L379.89 667.88" stroke="hsl(0, 3.1%, 80.5%)" stroke-width="1.5"></path><path d="M376.31 499.4L376.31 499.4" stroke="hsl(0, 3.1%, 80.5%)" stroke-width="1.5"></path><path d="M376.31 499.4L494.85 561.3" stroke="hsl(0, 3.1%, 80.5%)" stroke-width="1.5"></path><path d="M379.89 667.88L379.89 667.88" stroke="hsl(0, 3.1%, 80.5%)" stroke-width="1.5"></path><path d="M379.89 667.88L500.59 686.26" stroke="hsl(0, 3.1%, 80.5%)" stroke-width="1.5"></path><path d="M379.89 667.88L494.85 561.3" stroke="hsl(0, 3.1%, 80.5%)" stroke-width="1.5"></path><path d="M494.85 561.3L494.85 561.3" stroke="hsl(0, 3.1%, 80.5%)" stroke-width="1.5"></path><path d="M494.85 561.3L500.59 686.26" stroke="hsl(0, 3.1%, 80.5%)" stroke-width="1.5"></path><path d="M494.85 561.3L706.1 505.77" stroke="hsl(0, 3.1%, 80.5%)" stroke-width="1.5"></path><path d="M494.85 561.3L638.26 386" stroke="hsl(0, 3.1%, 80.5%)" stroke-width="1.5"></path><path d="M500.59 686.26L500.59 686.26" stroke="hsl(0, 3.1%, 80.5%)" stroke-width="1.5"></path><path d="M500.59 686.26L376.31 499.4" stroke="hsl(0, 3.1%, 80.5%)" stroke-width="1.5"></path><path d="M500.59 686.26L231.62 689.65" stroke="hsl(0, 3.1%, 80.5%)" stroke-width="1.5"></path><path d="M500.59 686.26L706.1 505.77" stroke="hsl(0, 3.1%, 80.5%)" stroke-width="1.5"></path><path d="M638.26 386L638.26 386" stroke="hsl(0, 3.1%, 80.5%)" stroke-width="1.5"></path><path d="M638.26 386L706.1 505.77" stroke="hsl(0, 3.1%, 80.5%)" stroke-width="1.5"></path><path d="M706.1 505.77L706.1 505.77" stroke="hsl(0, 3.1%, 80.5%)" stroke-width="1.5"></path><path d="M706.1 505.77L857.24 510.62" stroke="hsl(0, 3.1%, 80.5%)" stroke-width="1.5"></path><path d="M857.24 510.62L857.24 510.62" stroke="hsl(0, 3.1%, 80.5%)" stroke-width="1.5"></path><path d="M857.24 510.62L982.76 511.57" stroke="hsl(0, 3.1%, 80.5%)" stroke-width="1.5"></path><path d="M857.24 510.62L989.74 372.53" stroke="hsl(0, 3.1%, 80.5%)" stroke-width="1.5"></path><path d="M989.74 372.53L989.74 372.53" stroke="hsl(0, 3.1%, 80.5%)" stroke-width="1.5"></path><path d="M989.74 372.53L982.76 511.57" stroke="hsl(0, 3.1%, 80.5%)" stroke-width="1.5"></path><path d="M989.74 372.53L1137.08 514.73" stroke="hsl(0, 3.1%, 80.5%)" stroke-width="1.5"></path><path d="M982.76 511.57L982.76 511.57" stroke="hsl(0, 3.1%, 80.5%)" stroke-width="1.5"></path><path d="M982.76 511.57L1137.08 514.73" stroke="hsl(0, 3.1%, 80.5%)" stroke-width="1.5"></path><path d="M982.76 511.57L1120.52 363.83" stroke="hsl(0, 3.1%, 80.5%)" stroke-width="1.5"></path><path d="M982.76 511.57L1135.71 652.76" stroke="hsl(0, 3.1%, 80.5%)" stroke-width="1.5"></path><path d="M1158.34 -47.71L1158.34 -47.71" stroke="hsl(0, 3.1%, 80.5%)" stroke-width="1.5"></path><path d="M1112 199.35L1112 199.35" stroke="hsl(0, 3.1%, 80.5%)" stroke-width="1.5"></path><path d="M1112 199.35L1238.7 261.2" stroke="hsl(0, 3.1%, 80.5%)" stroke-width="1.5"></path><path d="M1112 199.35L1120.52 363.83" stroke="hsl(0, 3.1%, 80.5%)" stroke-width="1.5"></path><path d="M1112 199.35L1266.64 108.35" stroke="hsl(0, 3.1%, 80.5%)" stroke-width="1.5"></path><path d="M1137.08 514.73L1137.08 514.73" stroke="hsl(0, 3.1%, 80.5%)" stroke-width="1.5"></path><path d="M1137.08 514.73L1135.71 652.76" stroke="hsl(0, 3.1%, 80.5%)" stroke-width="1.5"></path><path d="M1137.08 514.73L1299.2 501.9" stroke="hsl(0, 3.1%, 80.5%)" stroke-width="1.5"></path><path d="M1135.71 652.76L1135.71 652.76" stroke="hsl(0, 3.1%, 80.5%)" stroke-width="1.5"></path><path d="M1135.71 652.76L1276.08 680.17" stroke="hsl(0, 3.1%, 80.5%)" stroke-width="1.5"></path><path d="M1135.71 652.76L1299.2 501.9" stroke="hsl(0, 3.1%, 80.5%)" stroke-width="1.5"></path><path d="M1135.71 652.76L1414.02 697.13" stroke="hsl(0, 3.1%, 80.5%)" stroke-width="1.5"></path><path d="M1135.71 652.76L1120.52 363.83" stroke="hsl(0, 3.1%, 80.5%)" stroke-width="1.5"></path><path d="M1266.64 108.35L1266.64 108.35" stroke="hsl(0, 3.1%, 80.5%)" stroke-width="1.5"></path><path d="M1238.7 261.2L1238.7 261.2" stroke="hsl(0, 3.1%, 80.5%)" stroke-width="1.5"></path><path d="M1238.7 261.2L1266.64 108.35" stroke="hsl(0, 3.1%, 80.5%)" stroke-width="1.5"></path><path d="M1238.7 261.2L1120.52 363.83" stroke="hsl(0, 3.1%, 80.5%)" stroke-width="1.5"></path><path d="M1238.7 261.2L1408.97 259.61" stroke="hsl(0, 3.1%, 80.5%)" stroke-width="1.5"></path><path d="M1238.7 261.2L1402.14 401.56" stroke="hsl(0, 3.1%, 80.5%)" stroke-width="1.5"></path><path d="M1299.2 501.9L1299.2 501.9" stroke="hsl(0, 3.1%, 80.5%)" stroke-width="1.5"></path><path d="M1299.2 501.9L1402.14 401.56" stroke="hsl(0, 3.1%, 80.5%)" stroke-width="1.5"></path><path d="M1299.2 501.9L1447.76 528.33" stroke="hsl(0, 3.1%, 80.5%)" stroke-width="1.5"></path><path d="M1276.08 680.17L1276.08 680.17" stroke="hsl(0, 3.1%, 80.5%)" stroke-width="1.5"></path><path d="M1276.08 680.17L1414.02 697.13" stroke="hsl(0, 3.1%, 80.5%)" stroke-width="1.5"></path><path d="M1276.08 680.17L1299.2 501.9" stroke="hsl(0, 3.1%, 80.5%)" stroke-width="1.5"></path><path d="M1276.08 680.17L1137.08 514.73" stroke="hsl(0, 3.1%, 80.5%)" stroke-width="1.5"></path><path d="M1276.08 680.17L1447.76 528.33" stroke="hsl(0, 3.1%, 80.5%)" stroke-width="1.5"></path><path d="M1408.97 259.61L1408.97 259.61" stroke="hsl(0, 3.1%, 80.5%)" stroke-width="1.5"></path><path d="M1408.97 259.61L1402.14 401.56" stroke="hsl(0, 3.1%, 80.5%)" stroke-width="1.5"></path><path d="M1408.97 259.61L1565.1 222.71" stroke="hsl(0, 3.1%, 80.5%)" stroke-width="1.5"></path><path d="M1408.97 259.61L1266.64 108.35" stroke="hsl(0, 3.1%, 80.5%)" stroke-width="1.5"></path><path d="M1408.97 259.61L1587.06 406.26" stroke="hsl(0, 3.1%, 80.5%)" stroke-width="1.5"></path><path d="M1402.14 401.56L1402.14 401.56" stroke="hsl(0, 3.1%, 80.5%)" stroke-width="1.5"></path><path d="M1402.14 401.56L1447.76 528.33" stroke="hsl(0, 3.1%, 80.5%)" stroke-width="1.5"></path><path d="M1402.14 401.56L1587.06 406.26" stroke="hsl(0, 3.1%, 80.5%)" stroke-width="1.5"></path><path d="M1402.14 401.56L1550.52 525.59" stroke="hsl(0, 3.1%, 80.5%)" stroke-width="1.5"></path><path d="M1447.76 528.33L1447.76 528.33" stroke="hsl(0, 3.1%, 80.5%)" stroke-width="1.5"></path><path d="M1447.76 528.33L1550.52 525.59" stroke="hsl(0, 3.1%, 80.5%)" stroke-width="1.5"></path><path d="M1414.02 697.13L1414.02 697.13" stroke="hsl(0, 3.1%, 80.5%)" stroke-width="1.5"></path><path d="M1414.02 697.13L1549.04 712.06" stroke="hsl(0, 3.1%, 80.5%)" stroke-width="1.5"></path><path d="M1414.02 697.13L1447.76 528.33" stroke="hsl(0, 3.1%, 80.5%)" stroke-width="1.5"></path><path d="M1574.29 -67.55L1574.29 -67.55" stroke="hsl(0, 3.1%, 80.5%)" stroke-width="1.5"></path><path d="M1574.29 -67.55L1564.87 64.06" stroke="hsl(0, 3.1%, 80.5%)" stroke-width="1.5"></path><path d="M1574.29 -67.55L1565.1 222.71" stroke="hsl(0, 3.1%, 80.5%)" stroke-width="1.5"></path><path d="M1574.29 -67.55L1248.98 -40.33" stroke="hsl(0, 3.1%, 80.5%)" stroke-width="1.5"></path><path d="M1564.87 64.06L1564.87 64.06" stroke="hsl(0, 3.1%, 80.5%)" stroke-width="1.5"></path><path d="M1564.87 64.06L1565.1 222.71" stroke="hsl(0, 3.1%, 80.5%)" stroke-width="1.5"></path><path d="M1564.87 64.06L1408.97 259.61" stroke="hsl(0, 3.1%, 80.5%)" stroke-width="1.5"></path><path d="M1564.87 64.06L1266.64 108.35" stroke="hsl(0, 3.1%, 80.5%)" stroke-width="1.5"></path><path d="M1564.87 64.06L1248.98 -40.33" stroke="hsl(0, 3.1%, 80.5%)" stroke-width="1.5"></path><path d="M1565.1 222.71L1565.1 222.71" stroke="hsl(0, 3.1%, 80.5%)" stroke-width="1.5"></path><path d="M1550.52 525.59L1550.52 525.59" stroke="hsl(0, 3.1%, 80.5%)" stroke-width="1.5"></path><path d="M1550.52 525.59L1549.04 712.06" stroke="hsl(0, 3.1%, 80.5%)" stroke-width="1.5"></path><path d="M1549.04 712.06L1549.04 712.06" stroke="hsl(0, 3.1%, 80.5%)" stroke-width="1.5"></path><path d="M1549.04 712.06L1447.76 528.33" stroke="hsl(0, 3.1%, 80.5%)" stroke-width="1.5"></path><circle r="25" cx="246.2" cy="516.44" fill="url(#SvgjsRadialGradient1025)"></circle><circle r="25" cx="673.13" cy="643.67" fill="url(#SvgjsRadialGradient1025)"></circle><circle r="25" cx="827.13" cy="383.5" fill="url(#SvgjsRadialGradient1025)"></circle><circle r="25" cx="807.39" cy="683.28" fill="url(#SvgjsRadialGradient1025)"></circle><circle r="25" cx="1141.21" cy="66.57" fill="url(#SvgjsRadialGradient1025)"></circle><circle r="25" cx="1120.52" cy="363.83" fill="url(#SvgjsRadialGradient1025)"></circle><circle r="25" cx="1248.98" cy="-40.33" fill="url(#SvgjsRadialGradient1025)"></circle><circle r="25" cx="1420.77" cy="-79.02" fill="url(#SvgjsRadialGradient1025)"></circle><circle r="25" cx="1587.06" cy="406.26" fill="url(#SvgjsRadialGradient1025)"></circle><circle r="5" cx="-99.12" cy="545.29" fill="#d0cdcd"></circle><circle r="5" cx="-71.04" cy="668.92" fill="#d0cdcd"></circle><circle r="5" cx="106.04" cy="498.46" fill="#d0cdcd"></circle><circle r="5" cx="48.1" cy="681.81" fill="#d0cdcd"></circle><circle r="5" cx="231.62" cy="689.65" fill="#d0cdcd"></circle><circle r="5" cx="376.31" cy="499.4" fill="#d0cdcd"></circle><circle r="5" cx="379.89" cy="667.88" fill="#d0cdcd"></circle><circle r="5" cx="494.85" cy="561.3" fill="#d0cdcd"></circle><circle r="5" cx="500.59" cy="686.26" fill="#d0cdcd"></circle><circle r="5" cx="638.26" cy="386" fill="#d0cdcd"></circle><circle r="5" cx="706.1" cy="505.77" fill="#d0cdcd"></circle><circle r="5" cx="857.24" cy="510.62" fill="#d0cdcd"></circle><circle r="5" cx="989.74" cy="372.53" fill="#d0cdcd"></circle><circle r="5" cx="982.76" cy="511.57" fill="#d0cdcd"></circle><circle r="5" cx="1158.34" cy="-47.71" fill="#d0cdcd"></circle><circle r="5" cx="1112" cy="199.35" fill="#d0cdcd"></circle><circle r="5" cx="1137.08" cy="514.73" fill="#d0cdcd"></circle><circle r="5" cx="1135.71" cy="652.76" fill="#d0cdcd"></circle><circle r="5" cx="1266.64" cy="108.35" fill="#d0cdcd"></circle><circle r="5" cx="1238.7" cy="261.2" fill="#d0cdcd"></circle><circle r="5" cx="1299.2" cy="501.9" fill="#d0cdcd"></circle><circle r="5" cx="1276.08" cy="680.17" fill="#d0cdcd"></circle><circle r="5" cx="1408.97" cy="259.61" fill="#d0cdcd"></circle><circle r="5" cx="1402.14" cy="401.56" fill="#d0cdcd"></circle><circle r="5" cx="1447.76" cy="528.33" fill="#d0cdcd"></circle><circle r="5" cx="1414.02" cy="697.13" fill="#d0cdcd"></circle><circle r="5" cx="1574.29" cy="-67.55" fill="#d0cdcd"></circle><circle r="5" cx="1564.87" cy="64.06" fill="#d0cdcd"></circle><circle r="5" cx="1565.1" cy="222.71" fill="#d0cdcd"></circle><circle r="5" cx="1550.52" cy="525.59" fill="#d0cdcd"></circle><circle r="5" cx="1549.04" cy="712.06" fill="#d0cdcd"></circle></g><defs><mask id="SvgjsMask1024"><rect width="1440" height="560" fill="#ffffff"></rect></mask><radialGradient id="SvgjsRadialGradient1025"><stop stop-color="#ffffff" offset="0.1"></stop><stop stop-color="rgba(161, 155, 155, 1)" offset="0.2"></stop><stop stop-color="rgba(161, 155, 155, 0)" offset="1"></stop></radialGradient></defs></svg>