<svg xmlns="http://www.w3.org/2000/svg" version="1.1" xmlns:xlink="http://www.w3.org/1999/xlink" xmlns:svgjs="http://svgjs.com/svgjs" width="2200" height="1000" preserveAspectRatio="none" viewBox="0 0 2200 1000"><g mask="url(&quot;#SvgjsMask1003&quot;)" fill="none"><rect width="2200" height="1000" x="0" y="0" fill="rgba(255, 255, 255, 1)"></rect><path d="M105.4 262.09L202.4 318.09L202.4 430.09L105.4 486.09L8.4 430.09L8.4 318.09zM396.39 430.09L493.39 486.09L493.39 598.09L396.39 654.09L299.4 598.09L299.4 486.09zM396.39 766.09L493.39 822.09L493.39 934.09L396.39 990.09L299.4 934.09L299.4 822.09zM493.39 262.09L590.39 318.09L590.39 430.09L493.39 486.09L396.39 430.09L396.39 318.09zM687.39 598.09L784.38 654.09L784.38 766.09L687.39 822.09L590.39 766.09L590.39 654.09zM978.38 94.09L1075.38 150.09L1075.38 262.09L978.38 318.09L881.38 262.09L881.38 150.09zM1366.37 94.09L1463.37 150.09L1463.37 262.09L1366.37 318.09L1269.37 262.09L1269.37 150.09zM1366.37 430.09L1463.37 486.09L1463.37 598.09L1366.37 654.09L1269.37 598.09L1269.37 486.09zM1657.36 262.09L1754.36 318.09L1754.36 430.09L1657.36 486.09L1560.36 430.09L1560.36 318.09zM2142.35 766.09L2239.35 822.09L2239.35 934.09L2142.35 990.09L2045.35 934.09L2045.35 822.09z" stroke="rgba(101, 105, 108, 1)" stroke-width="2"></path><path d="M94.2 262.09 a11.2 11.2 0 1 0 22.4 0 a11.2 11.2 0 1 0 -22.4 0zM191.2 318.09 a11.2 11.2 0 1 0 22.4 0 a11.2 11.2 0 1 0 -22.4 0zM191.2 430.09 a11.2 11.2 0 1 0 22.4 0 a11.2 11.2 0 1 0 -22.4 0zM94.2 486.09 a11.2 11.2 0 1 0 22.4 0 a11.2 11.2 0 1 0 -22.4 0zM-2.8 430.09 a11.2 11.2 0 1 0 22.4 0 a11.2 11.2 0 1 0 -22.4 0zM-2.8 318.09 a11.2 11.2 0 1 0 22.4 0 a11.2 11.2 0 1 0 -22.4 0zM385.19 430.09 a11.2 11.2 0 1 0 22.4 0 a11.2 11.2 0 1 0 -22.4 0zM482.19 486.09 a11.2 11.2 0 1 0 22.4 0 a11.2 11.2 0 1 0 -22.4 0zM482.19 598.09 a11.2 11.2 0 1 0 22.4 0 a11.2 11.2 0 1 0 -22.4 0zM385.19 654.09 a11.2 11.2 0 1 0 22.4 0 a11.2 11.2 0 1 0 -22.4 0zM288.2 598.09 a11.2 11.2 0 1 0 22.4 0 a11.2 11.2 0 1 0 -22.4 0zM288.2 486.09 a11.2 11.2 0 1 0 22.4 0 a11.2 11.2 0 1 0 -22.4 0zM385.19 766.09 a11.2 11.2 0 1 0 22.4 0 a11.2 11.2 0 1 0 -22.4 0zM482.19 822.09 a11.2 11.2 0 1 0 22.4 0 a11.2 11.2 0 1 0 -22.4 0zM482.19 934.09 a11.2 11.2 0 1 0 22.4 0 a11.2 11.2 0 1 0 -22.4 0zM385.19 990.09 a11.2 11.2 0 1 0 22.4 0 a11.2 11.2 0 1 0 -22.4 0zM288.2 934.09 a11.2 11.2 0 1 0 22.4 0 a11.2 11.2 0 1 0 -22.4 0zM288.2 822.09 a11.2 11.2 0 1 0 22.4 0 a11.2 11.2 0 1 0 -22.4 0zM482.19 262.09 a11.2 11.2 0 1 0 22.4 0 a11.2 11.2 0 1 0 -22.4 0zM579.19 318.09 a11.2 11.2 0 1 0 22.4 0 a11.2 11.2 0 1 0 -22.4 0zM579.19 430.09 a11.2 11.2 0 1 0 22.4 0 a11.2 11.2 0 1 0 -22.4 0zM385.19 318.09 a11.2 11.2 0 1 0 22.4 0 a11.2 11.2 0 1 0 -22.4 0zM676.19 598.09 a11.2 11.2 0 1 0 22.4 0 a11.2 11.2 0 1 0 -22.4 0zM773.18 654.09 a11.2 11.2 0 1 0 22.4 0 a11.2 11.2 0 1 0 -22.4 0zM773.18 766.09 a11.2 11.2 0 1 0 22.4 0 a11.2 11.2 0 1 0 -22.4 0zM676.19 822.09 a11.2 11.2 0 1 0 22.4 0 a11.2 11.2 0 1 0 -22.4 0zM579.19 766.09 a11.2 11.2 0 1 0 22.4 0 a11.2 11.2 0 1 0 -22.4 0zM579.19 654.09 a11.2 11.2 0 1 0 22.4 0 a11.2 11.2 0 1 0 -22.4 0zM967.18 94.09 a11.2 11.2 0 1 0 22.4 0 a11.2 11.2 0 1 0 -22.4 0zM1064.18 150.09 a11.2 11.2 0 1 0 22.4 0 a11.2 11.2 0 1 0 -22.4 0zM1064.18 262.09 a11.2 11.2 0 1 0 22.4 0 a11.2 11.2 0 1 0 -22.4 0zM967.18 318.09 a11.2 11.2 0 1 0 22.4 0 a11.2 11.2 0 1 0 -22.4 0zM870.18 262.09 a11.2 11.2 0 1 0 22.4 0 a11.2 11.2 0 1 0 -22.4 0zM870.18 150.09 a11.2 11.2 0 1 0 22.4 0 a11.2 11.2 0 1 0 -22.4 0zM1355.17 94.09 a11.2 11.2 0 1 0 22.4 0 a11.2 11.2 0 1 0 -22.4 0zM1452.17 150.09 a11.2 11.2 0 1 0 22.4 0 a11.2 11.2 0 1 0 -22.4 0zM1452.17 262.09 a11.2 11.2 0 1 0 22.4 0 a11.2 11.2 0 1 0 -22.4 0zM1355.17 318.09 a11.2 11.2 0 1 0 22.4 0 a11.2 11.2 0 1 0 -22.4 0zM1258.17 262.09 a11.2 11.2 0 1 0 22.4 0 a11.2 11.2 0 1 0 -22.4 0zM1258.17 150.09 a11.2 11.2 0 1 0 22.4 0 a11.2 11.2 0 1 0 -22.4 0zM1355.17 430.09 a11.2 11.2 0 1 0 22.4 0 a11.2 11.2 0 1 0 -22.4 0zM1452.17 486.09 a11.2 11.2 0 1 0 22.4 0 a11.2 11.2 0 1 0 -22.4 0zM1452.17 598.09 a11.2 11.2 0 1 0 22.4 0 a11.2 11.2 0 1 0 -22.4 0zM1355.17 654.09 a11.2 11.2 0 1 0 22.4 0 a11.2 11.2 0 1 0 -22.4 0zM1258.17 598.09 a11.2 11.2 0 1 0 22.4 0 a11.2 11.2 0 1 0 -22.4 0zM1258.17 486.09 a11.2 11.2 0 1 0 22.4 0 a11.2 11.2 0 1 0 -22.4 0zM1646.16 262.09 a11.2 11.2 0 1 0 22.4 0 a11.2 11.2 0 1 0 -22.4 0zM1743.16 318.09 a11.2 11.2 0 1 0 22.4 0 a11.2 11.2 0 1 0 -22.4 0zM1743.16 430.09 a11.2 11.2 0 1 0 22.4 0 a11.2 11.2 0 1 0 -22.4 0zM1646.16 486.09 a11.2 11.2 0 1 0 22.4 0 a11.2 11.2 0 1 0 -22.4 0zM1549.16 430.09 a11.2 11.2 0 1 0 22.4 0 a11.2 11.2 0 1 0 -22.4 0zM1549.16 318.09 a11.2 11.2 0 1 0 22.4 0 a11.2 11.2 0 1 0 -22.4 0zM2131.15 766.09 a11.2 11.2 0 1 0 22.4 0 a11.2 11.2 0 1 0 -22.4 0zM2228.15 822.09 a11.2 11.2 0 1 0 22.4 0 a11.2 11.2 0 1 0 -22.4 0zM2228.15 934.09 a11.2 11.2 0 1 0 22.4 0 a11.2 11.2 0 1 0 -22.4 0zM2131.15 990.09 a11.2 11.2 0 1 0 22.4 0 a11.2 11.2 0 1 0 -22.4 0zM2034.15 934.09 a11.2 11.2 0 1 0 22.4 0 a11.2 11.2 0 1 0 -22.4 0zM2034.15 822.09 a11.2 11.2 0 1 0 22.4 0 a11.2 11.2 0 1 0 -22.4 0z" fill="rgba(101, 105, 108, 1)"></path><path d="M6.86 103.83L39.77 122.83L39.77 160.83L6.86 179.83L-26.05 160.83L-26.05 122.83zM39.77 160.83L72.68 179.83L72.68 217.83L39.77 236.83L6.86 217.83L6.86 179.83zM6.86 217.83L39.77 236.83L39.77 274.83L6.86 293.83L-26.05 274.83L-26.05 236.83zM39.77 274.83L72.68 293.83L72.68 331.83L39.77 350.83L6.86 331.83L6.86 293.83zM6.86 331.83L39.77 350.83L39.77 388.83L6.86 407.83L-26.05 388.83L-26.05 350.83zM39.77 388.83L72.68 407.83L72.68 445.83L39.77 464.83L6.86 445.83L6.86 407.83zM6.86 445.83L39.77 464.83L39.77 502.83L6.86 521.83L-26.05 502.83L-26.05 464.83zM39.77 502.83L72.68 521.83L72.68 559.83L39.77 578.83L6.86 559.83L6.86 521.83zM6.86 559.83L39.77 578.83L39.77 616.83L6.86 635.83L-26.05 616.83L-26.05 578.83zM39.77 730.83L72.68 749.83L72.68 787.83L39.77 806.83L6.86 787.83L6.86 749.83zM6.86 787.83L39.77 806.83L39.77 844.83L6.86 863.83L-26.05 844.83L-26.05 806.83zM6.86 901.83L39.77 920.83L39.77 958.83L6.86 977.83L-26.05 958.83L-26.05 920.83zM39.77 958.83L72.68 977.83L72.68 1015.83L39.77 1034.83L6.86 1015.83L6.86 977.83zM6.86 1015.83L39.77 1034.83L39.77 1072.83L6.86 1091.83L-26.05 1072.83L-26.05 1034.83zM105.59 46.83L138.5 65.83L138.5 103.83L105.59 122.83L72.68 103.83L72.68 65.83zM72.68 103.83L105.59 122.83L105.59 160.83L72.68 179.83L39.77 160.83L39.77 122.83zM105.59 388.83L138.5 407.83L138.5 445.83L105.59 464.83L72.68 445.83L72.68 407.83zM72.68 445.83L105.59 464.83L105.59 502.83L72.68 521.83L39.77 502.83L39.77 464.83zM105.59 502.83L138.5 521.83L138.5 559.83L105.59 578.83L72.68 559.83L72.68 521.83zM72.68 559.83L105.59 578.83L105.59 616.83L72.68 635.83L39.77 616.83L39.77 578.83zM72.68 673.83L105.59 692.83L105.59 730.83L72.68 749.83L39.77 730.83L39.77 692.83zM105.59 730.83L138.5 749.83L138.5 787.83L105.59 806.83L72.68 787.83L72.68 749.83zM72.68 787.83L105.59 806.83L105.59 844.83L72.68 863.83L39.77 844.83L39.77 806.83zM72.68 901.83L105.59 920.83L105.59 958.83L72.68 977.83L39.77 958.83L39.77 920.83zM138.5 -10.17L171.41 8.83L171.41 46.83L138.5 65.83L105.59 46.83L105.59 8.83zM171.41 46.83L204.32 65.83L204.32 103.83L171.41 122.83L138.5 103.83L138.5 65.83zM138.5 445.83L171.41 464.83L171.41 502.83L138.5 521.83L105.59 502.83L105.59 464.83zM138.5 559.83L171.41 578.83L171.41 616.83L138.5 635.83L105.59 616.83L105.59 578.83zM138.5 673.83L171.41 692.83L171.41 730.83L138.5 749.83L105.59 730.83L105.59 692.83zM138.5 787.83L171.41 806.83L171.41 844.83L138.5 863.83L105.59 844.83L105.59 806.83zM138.5 901.83L171.41 920.83L171.41 958.83L138.5 977.83L105.59 958.83L105.59 920.83zM171.41 958.83L204.32 977.83L204.32 1015.83L171.41 1034.83L138.5 1015.83L138.5 977.83zM237.23 46.83L270.14 65.83L270.14 103.83L237.23 122.83L204.32 103.83L204.32 65.83zM204.32 103.83L237.23 122.83L237.23 160.83L204.32 179.83L171.41 160.83L171.41 122.83zM204.32 673.83L237.23 692.83L237.23 730.83L204.32 749.83L171.41 730.83L171.41 692.83zM237.23 844.83L270.14 863.83L270.14 901.83L237.23 920.83L204.32 901.83L204.32 863.83zM204.32 1015.83L237.23 1034.83L237.23 1072.83L204.32 1091.83L171.41 1072.83L171.41 1034.83zM270.14 -10.17L303.05 8.83L303.05 46.83L270.14 65.83L237.23 46.83L237.23 8.83zM303.05 46.83L335.96 65.83L335.96 103.83L303.05 122.83L270.14 103.83L270.14 65.83zM303.05 160.83L335.96 179.83L335.96 217.83L303.05 236.83L270.14 217.83L270.14 179.83zM270.14 217.83L303.05 236.83L303.05 274.83L270.14 293.83L237.23 274.83L237.23 236.83zM303.05 274.83L335.96 293.83L335.96 331.83L303.05 350.83L270.14 331.83L270.14 293.83zM270.14 331.83L303.05 350.83L303.05 388.83L270.14 407.83L237.23 388.83L237.23 350.83zM303.05 388.83L335.96 407.83L335.96 445.83L303.05 464.83L270.14 445.83L270.14 407.83zM270.14 445.83L303.05 464.83L303.05 502.83L270.14 521.83L237.23 502.83L237.23 464.83zM303.05 502.83L335.96 521.83L335.96 559.83L303.05 578.83L270.14 559.83L270.14 521.83zM270.14 559.83L303.05 578.83L303.05 616.83L270.14 635.83L237.23 616.83L237.23 578.83zM270.14 673.83L303.05 692.83L303.05 730.83L270.14 749.83L237.23 730.83L237.23 692.83zM303.05 730.83L335.96 749.83L335.96 787.83L303.05 806.83L270.14 787.83L270.14 749.83zM270.14 787.83L303.05 806.83L303.05 844.83L270.14 863.83L237.23 844.83L237.23 806.83zM270.14 901.83L303.05 920.83L303.05 958.83L270.14 977.83L237.23 958.83L237.23 920.83zM368.87 46.83L401.78 65.83L401.78 103.83L368.87 122.83L335.96 103.83L335.96 65.83zM335.96 103.83L368.87 122.83L368.87 160.83L335.96 179.83L303.05 160.83L303.05 122.83zM335.96 217.83L368.87 236.83L368.87 274.83L335.96 293.83L303.05 274.83L303.05 236.83zM368.87 388.83L401.78 407.83L401.78 445.83L368.87 464.83L335.96 445.83L335.96 407.83zM335.96 673.83L368.87 692.83L368.87 730.83L335.96 749.83L303.05 730.83L303.05 692.83zM335.96 901.83L368.87 920.83L368.87 958.83L335.96 977.83L303.05 958.83L303.05 920.83zM401.78 -10.17L434.69 8.83L434.69 46.83L401.78 65.83L368.87 46.83L368.87 8.83zM434.69 46.83L467.6 65.83L467.6 103.83L434.69 122.83L401.78 103.83L401.78 65.83zM401.78 103.83L434.69 122.83L434.69 160.83L401.78 179.83L368.87 160.83L368.87 122.83zM401.78 445.83L434.69 464.83L434.69 502.83L401.78 521.83L368.87 502.83L368.87 464.83zM401.78 559.83L434.69 578.83L434.69 616.83L401.78 635.83L368.87 616.83L368.87 578.83zM434.69 616.83L467.6 635.83L467.6 673.83L434.69 692.83L401.78 673.83L401.78 635.83zM401.78 901.83L434.69 920.83L434.69 958.83L401.78 977.83L368.87 958.83L368.87 920.83zM434.69 958.83L467.6 977.83L467.6 1015.83L434.69 1034.83L401.78 1015.83L401.78 977.83zM467.6 -10.17L500.51 8.83L500.51 46.83L467.6 65.83L434.69 46.83L434.69 8.83zM500.51 46.83L533.42 65.83L533.42 103.83L500.51 122.83L467.6 103.83L467.6 65.83zM467.6 103.83L500.51 122.83L500.51 160.83L467.6 179.83L434.69 160.83L434.69 122.83zM500.51 160.83L533.42 179.83L533.42 217.83L500.51 236.83L467.6 217.83L467.6 179.83zM500.51 274.83L533.42 293.83L533.42 331.83L500.51 350.83L467.6 331.83L467.6 293.83zM500.51 388.83L533.42 407.83L533.42 445.83L500.51 464.83L467.6 445.83L467.6 407.83zM467.6 445.83L500.51 464.83L500.51 502.83L467.6 521.83L434.69 502.83L434.69 464.83zM467.6 787.83L500.51 806.83L500.51 844.83L467.6 863.83L434.69 844.83L434.69 806.83zM533.42 103.83L566.33 122.83L566.33 160.83L533.42 179.83L500.51 160.83L500.51 122.83zM566.33 160.83L599.24 179.83L599.24 217.83L566.33 236.83L533.42 217.83L533.42 179.83zM533.42 217.83L566.33 236.83L566.33 274.83L533.42 293.83L500.51 274.83L500.51 236.83zM533.42 331.83L566.33 350.83L566.33 388.83L533.42 407.83L500.51 388.83L500.51 350.83zM566.33 388.83L599.24 407.83L599.24 445.83L566.33 464.83L533.42 445.83L533.42 407.83zM566.33 502.83L599.24 521.83L599.24 559.83L566.33 578.83L533.42 559.83L533.42 521.83zM566.33 616.83L599.24 635.83L599.24 673.83L566.33 692.83L533.42 673.83L533.42 635.83zM566.33 730.83L599.24 749.83L599.24 787.83L566.33 806.83L533.42 787.83L533.42 749.83zM566.33 844.83L599.24 863.83L599.24 901.83L566.33 920.83L533.42 901.83L533.42 863.83zM632.15 160.83L665.06 179.83L665.06 217.83L632.15 236.83L599.24 217.83L599.24 179.83zM632.15 274.83L665.06 293.83L665.06 331.83L632.15 350.83L599.24 331.83L599.24 293.83zM599.24 331.83L632.15 350.83L632.15 388.83L599.24 407.83L566.33 388.83L566.33 350.83zM599.24 559.83L632.15 578.83L632.15 616.83L599.24 635.83L566.33 616.83L566.33 578.83zM632.15 616.83L665.06 635.83L665.06 673.83L632.15 692.83L599.24 673.83L599.24 635.83zM632.15 730.83L665.06 749.83L665.06 787.83L632.15 806.83L599.24 787.83L599.24 749.83zM599.24 901.83L632.15 920.83L632.15 958.83L599.24 977.83L566.33 958.83L566.33 920.83zM697.97 46.83L730.88 65.83L730.88 103.83L697.97 122.83L665.06 103.83L665.06 65.83zM665.06 103.83L697.97 122.83L697.97 160.83L665.06 179.83L632.15 160.83L632.15 122.83zM665.06 217.83L697.97 236.83L697.97 274.83L665.06 293.83L632.15 274.83L632.15 236.83zM665.06 331.83L697.97 350.83L697.97 388.83L665.06 407.83L632.15 388.83L632.15 350.83zM697.97 388.83L730.88 407.83L730.88 445.83L697.97 464.83L665.06 445.83L665.06 407.83zM665.06 445.83L697.97 464.83L697.97 502.83L665.06 521.83L632.15 502.83L632.15 464.83zM665.06 673.83L697.97 692.83L697.97 730.83L665.06 749.83L632.15 730.83L632.15 692.83zM665.06 787.83L697.97 806.83L697.97 844.83L665.06 863.83L632.15 844.83L632.15 806.83zM697.97 844.83L730.88 863.83L730.88 901.83L697.97 920.83L665.06 901.83L665.06 863.83zM665.06 901.83L697.97 920.83L697.97 958.83L665.06 977.83L632.15 958.83L632.15 920.83zM697.97 958.83L730.88 977.83L730.88 1015.83L697.97 1034.83L665.06 1015.83L665.06 977.83zM730.88 -10.17L763.79 8.83L763.79 46.83L730.88 65.83L697.97 46.83L697.97 8.83zM763.79 160.83L796.7 179.83L796.7 217.83L763.79 236.83L730.88 217.83L730.88 179.83zM763.79 502.83L796.7 521.83L796.7 559.83L763.79 578.83L730.88 559.83L730.88 521.83zM730.88 559.83L763.79 578.83L763.79 616.83L730.88 635.83L697.97 616.83L697.97 578.83zM730.88 673.83L763.79 692.83L763.79 730.83L730.88 749.83L697.97 730.83L697.97 692.83zM763.79 844.83L796.7 863.83L796.7 901.83L763.79 920.83L730.88 901.83L730.88 863.83zM730.88 1015.83L763.79 1034.83L763.79 1072.83L730.88 1091.83L697.97 1072.83L697.97 1034.83zM796.7 -10.17L829.61 8.83L829.61 46.83L796.7 65.83L763.79 46.83L763.79 8.83zM829.61 46.83L862.52 65.83L862.52 103.83L829.61 122.83L796.7 103.83L796.7 65.83zM796.7 103.83L829.61 122.83L829.61 160.83L796.7 179.83L763.79 160.83L763.79 122.83zM796.7 217.83L829.61 236.83L829.61 274.83L796.7 293.83L763.79 274.83L763.79 236.83zM829.61 274.83L862.52 293.83L862.52 331.83L829.61 350.83L796.7 331.83L796.7 293.83zM796.7 445.83L829.61 464.83L829.61 502.83L796.7 521.83L763.79 502.83L763.79 464.83zM796.7 559.83L829.61 578.83L829.61 616.83L796.7 635.83L763.79 616.83L763.79 578.83zM829.61 844.83L862.52 863.83L862.52 901.83L829.61 920.83L796.7 901.83L796.7 863.83zM862.52 -10.17L895.43 8.83L895.43 46.83L862.52 65.83L829.61 46.83L829.61 8.83zM895.43 46.83L928.34 65.83L928.34 103.83L895.43 122.83L862.52 103.83L862.52 65.83zM895.43 160.83L928.34 179.83L928.34 217.83L895.43 236.83L862.52 217.83L862.52 179.83zM862.52 217.83L895.43 236.83L895.43 274.83L862.52 293.83L829.61 274.83L829.61 236.83zM895.43 388.83L928.34 407.83L928.34 445.83L895.43 464.83L862.52 445.83L862.52 407.83zM862.52 445.83L895.43 464.83L895.43 502.83L862.52 521.83L829.61 502.83L829.61 464.83zM895.43 502.83L928.34 521.83L928.34 559.83L895.43 578.83L862.52 559.83L862.52 521.83zM862.52 673.83L895.43 692.83L895.43 730.83L862.52 749.83L829.61 730.83L829.61 692.83zM895.43 730.83L928.34 749.83L928.34 787.83L895.43 806.83L862.52 787.83L862.52 749.83zM862.52 787.83L895.43 806.83L895.43 844.83L862.52 863.83L829.61 844.83L829.61 806.83zM862.52 1015.83L895.43 1034.83L895.43 1072.83L862.52 1091.83L829.61 1072.83L829.61 1034.83zM928.34 -10.17L961.25 8.83L961.25 46.83L928.34 65.83L895.43 46.83L895.43 8.83zM928.34 103.83L961.25 122.83L961.25 160.83L928.34 179.83L895.43 160.83L895.43 122.83zM961.25 160.83L994.16 179.83L994.16 217.83L961.25 236.83L928.34 217.83L928.34 179.83zM961.25 274.83L994.16 293.83L994.16 331.83L961.25 350.83L928.34 331.83L928.34 293.83zM961.25 388.83L994.16 407.83L994.16 445.83L961.25 464.83L928.34 445.83L928.34 407.83zM928.34 445.83L961.25 464.83L961.25 502.83L928.34 521.83L895.43 502.83L895.43 464.83zM928.34 787.83L961.25 806.83L961.25 844.83L928.34 863.83L895.43 844.83L895.43 806.83zM961.25 844.83L994.16 863.83L994.16 901.83L961.25 920.83L928.34 901.83L928.34 863.83zM961.25 958.83L994.16 977.83L994.16 1015.83L961.25 1034.83L928.34 1015.83L928.34 977.83zM1027.07 46.83L1059.98 65.83L1059.98 103.83L1027.07 122.83L994.16 103.83L994.16 65.83zM1027.07 160.83L1059.98 179.83L1059.98 217.83L1027.07 236.83L994.16 217.83L994.16 179.83zM1027.07 388.83L1059.98 407.83L1059.98 445.83L1027.07 464.83L994.16 445.83L994.16 407.83zM1027.07 502.83L1059.98 521.83L1059.98 559.83L1027.07 578.83L994.16 559.83L994.16 521.83zM994.16 559.83L1027.07 578.83L1027.07 616.83L994.16 635.83L961.25 616.83L961.25 578.83zM1027.07 616.83L1059.98 635.83L1059.98 673.83L1027.07 692.83L994.16 673.83L994.16 635.83zM994.16 673.83L1027.07 692.83L1027.07 730.83L994.16 749.83L961.25 730.83L961.25 692.83zM1027.07 730.83L1059.98 749.83L1059.98 787.83L1027.07 806.83L994.16 787.83L994.16 749.83zM994.16 901.83L1027.07 920.83L1027.07 958.83L994.16 977.83L961.25 958.83L961.25 920.83zM1027.07 958.83L1059.98 977.83L1059.98 1015.83L1027.07 1034.83L994.16 1015.83L994.16 977.83zM994.16 1015.83L1027.07 1034.83L1027.07 1072.83L994.16 1091.83L961.25 1072.83L961.25 1034.83zM1059.98 -10.17L1092.89 8.83L1092.89 46.83L1059.98 65.83L1027.07 46.83L1027.07 8.83zM1092.89 274.83L1125.8 293.83L1125.8 331.83L1092.89 350.83L1059.98 331.83L1059.98 293.83zM1059.98 445.83L1092.89 464.83L1092.89 502.83L1059.98 521.83L1027.07 502.83L1027.07 464.83zM1059.98 559.83L1092.89 578.83L1092.89 616.83L1059.98 635.83L1027.07 616.83L1027.07 578.83zM1092.89 616.83L1125.8 635.83L1125.8 673.83L1092.89 692.83L1059.98 673.83L1059.98 635.83zM1059.98 901.83L1092.89 920.83L1092.89 958.83L1059.98 977.83L1027.07 958.83L1027.07 920.83zM1092.89 958.83L1125.8 977.83L1125.8 1015.83L1092.89 1034.83L1059.98 1015.83L1059.98 977.83zM1059.98 1015.83L1092.89 1034.83L1092.89 1072.83L1059.98 1091.83L1027.07 1072.83L1027.07 1034.83zM1125.8 -10.17L1158.71 8.83L1158.71 46.83L1125.8 65.83L1092.89 46.83L1092.89 8.83zM1125.8 103.83L1158.71 122.83L1158.71 160.83L1125.8 179.83L1092.89 160.83L1092.89 122.83zM1158.71 160.83L1191.62 179.83L1191.62 217.83L1158.71 236.83L1125.8 217.83L1125.8 179.83zM1125.8 217.83L1158.71 236.83L1158.71 274.83L1125.8 293.83L1092.89 274.83L1092.89 236.83zM1125.8 331.83L1158.71 350.83L1158.71 388.83L1125.8 407.83L1092.89 388.83L1092.89 350.83zM1158.71 388.83L1191.62 407.83L1191.62 445.83L1158.71 464.83L1125.8 445.83L1125.8 407.83zM1158.71 502.83L1191.62 521.83L1191.62 559.83L1158.71 578.83L1125.8 559.83L1125.8 521.83zM1125.8 559.83L1158.71 578.83L1158.71 616.83L1125.8 635.83L1092.89 616.83L1092.89 578.83zM1125.8 673.83L1158.71 692.83L1158.71 730.83L1125.8 749.83L1092.89 730.83L1092.89 692.83zM1158.71 730.83L1191.62 749.83L1191.62 787.83L1158.71 806.83L1125.8 787.83L1125.8 749.83zM1125.8 787.83L1158.71 806.83L1158.71 844.83L1125.8 863.83L1092.89 844.83L1092.89 806.83zM1158.71 958.83L1191.62 977.83L1191.62 1015.83L1158.71 1034.83L1125.8 1015.83L1125.8 977.83zM1191.62 -10.17L1224.53 8.83L1224.53 46.83L1191.62 65.83L1158.71 46.83L1158.71 8.83zM1224.53 160.83L1257.44 179.83L1257.44 217.83L1224.53 236.83L1191.62 217.83L1191.62 179.83zM1224.53 388.83L1257.44 407.83L1257.44 445.83L1224.53 464.83L1191.62 445.83L1191.62 407.83zM1191.62 445.83L1224.53 464.83L1224.53 502.83L1191.62 521.83L1158.71 502.83L1158.71 464.83zM1191.62 559.83L1224.53 578.83L1224.53 616.83L1191.62 635.83L1158.71 616.83L1158.71 578.83zM1224.53 616.83L1257.44 635.83L1257.44 673.83L1224.53 692.83L1191.62 673.83L1191.62 635.83zM1191.62 673.83L1224.53 692.83L1224.53 730.83L1191.62 749.83L1158.71 730.83L1158.71 692.83zM1224.53 730.83L1257.44 749.83L1257.44 787.83L1224.53 806.83L1191.62 787.83L1191.62 749.83zM1191.62 1015.83L1224.53 1034.83L1224.53 1072.83L1191.62 1091.83L1158.71 1072.83L1158.71 1034.83zM1257.44 -10.17L1290.35 8.83L1290.35 46.83L1257.44 65.83L1224.53 46.83L1224.53 8.83zM1290.35 274.83L1323.26 293.83L1323.26 331.83L1290.35 350.83L1257.44 331.83L1257.44 293.83zM1257.44 331.83L1290.35 350.83L1290.35 388.83L1257.44 407.83L1224.53 388.83L1224.53 350.83zM1290.35 388.83L1323.26 407.83L1323.26 445.83L1290.35 464.83L1257.44 445.83L1257.44 407.83zM1257.44 445.83L1290.35 464.83L1290.35 502.83L1257.44 521.83L1224.53 502.83L1224.53 464.83zM1290.35 502.83L1323.26 521.83L1323.26 559.83L1290.35 578.83L1257.44 559.83L1257.44 521.83zM1290.35 616.83L1323.26 635.83L1323.26 673.83L1290.35 692.83L1257.44 673.83L1257.44 635.83zM1290.35 730.83L1323.26 749.83L1323.26 787.83L1290.35 806.83L1257.44 787.83L1257.44 749.83zM1257.44 787.83L1290.35 806.83L1290.35 844.83L1257.44 863.83L1224.53 844.83L1224.53 806.83zM1257.44 901.83L1290.35 920.83L1290.35 958.83L1257.44 977.83L1224.53 958.83L1224.53 920.83zM1290.35 958.83L1323.26 977.83L1323.26 1015.83L1290.35 1034.83L1257.44 1015.83L1257.44 977.83zM1257.44 1015.83L1290.35 1034.83L1290.35 1072.83L1257.44 1091.83L1224.53 1072.83L1224.53 1034.83zM1323.26 -10.17L1356.17 8.83L1356.17 46.83L1323.26 65.83L1290.35 46.83L1290.35 8.83zM1356.17 46.83L1389.08 65.83L1389.08 103.83L1356.17 122.83L1323.26 103.83L1323.26 65.83zM1356.17 160.83L1389.08 179.83L1389.08 217.83L1356.17 236.83L1323.26 217.83L1323.26 179.83zM1323.26 217.83L1356.17 236.83L1356.17 274.83L1323.26 293.83L1290.35 274.83L1290.35 236.83zM1323.26 331.83L1356.17 350.83L1356.17 388.83L1323.26 407.83L1290.35 388.83L1290.35 350.83zM1323.26 445.83L1356.17 464.83L1356.17 502.83L1323.26 521.83L1290.35 502.83L1290.35 464.83zM1323.26 559.83L1356.17 578.83L1356.17 616.83L1323.26 635.83L1290.35 616.83L1290.35 578.83zM1323.26 901.83L1356.17 920.83L1356.17 958.83L1323.26 977.83L1290.35 958.83L1290.35 920.83zM1389.08 -10.17L1421.99 8.83L1421.99 46.83L1389.08 65.83L1356.17 46.83L1356.17 8.83zM1389.08 103.83L1421.99 122.83L1421.99 160.83L1389.08 179.83L1356.17 160.83L1356.17 122.83zM1389.08 217.83L1421.99 236.83L1421.99 274.83L1389.08 293.83L1356.17 274.83L1356.17 236.83zM1389.08 331.83L1421.99 350.83L1421.99 388.83L1389.08 407.83L1356.17 388.83L1356.17 350.83zM1421.99 388.83L1454.9 407.83L1454.9 445.83L1421.99 464.83L1389.08 445.83L1389.08 407.83zM1421.99 502.83L1454.9 521.83L1454.9 559.83L1421.99 578.83L1389.08 559.83L1389.08 521.83zM1389.08 559.83L1421.99 578.83L1421.99 616.83L1389.08 635.83L1356.17 616.83L1356.17 578.83zM1421.99 616.83L1454.9 635.83L1454.9 673.83L1421.99 692.83L1389.08 673.83L1389.08 635.83zM1389.08 673.83L1421.99 692.83L1421.99 730.83L1389.08 749.83L1356.17 730.83L1356.17 692.83zM1421.99 844.83L1454.9 863.83L1454.9 901.83L1421.99 920.83L1389.08 901.83L1389.08 863.83zM1389.08 1015.83L1421.99 1034.83L1421.99 1072.83L1389.08 1091.83L1356.17 1072.83L1356.17 1034.83zM1454.9 -10.17L1487.81 8.83L1487.81 46.83L1454.9 65.83L1421.99 46.83L1421.99 8.83zM1454.9 103.83L1487.81 122.83L1487.81 160.83L1454.9 179.83L1421.99 160.83L1421.99 122.83zM1454.9 217.83L1487.81 236.83L1487.81 274.83L1454.9 293.83L1421.99 274.83L1421.99 236.83zM1487.81 502.83L1520.72 521.83L1520.72 559.83L1487.81 578.83L1454.9 559.83L1454.9 521.83zM1454.9 559.83L1487.81 578.83L1487.81 616.83L1454.9 635.83L1421.99 616.83L1421.99 578.83zM1487.81 616.83L1520.72 635.83L1520.72 673.83L1487.81 692.83L1454.9 673.83L1454.9 635.83zM1454.9 673.83L1487.81 692.83L1487.81 730.83L1454.9 749.83L1421.99 730.83L1421.99 692.83zM1454.9 787.83L1487.81 806.83L1487.81 844.83L1454.9 863.83L1421.99 844.83L1421.99 806.83zM1487.81 958.83L1520.72 977.83L1520.72 1015.83L1487.81 1034.83L1454.9 1015.83L1454.9 977.83zM1520.72 -10.17L1553.63 8.83L1553.63 46.83L1520.72 65.83L1487.81 46.83L1487.81 8.83zM1520.72 103.83L1553.63 122.83L1553.63 160.83L1520.72 179.83L1487.81 160.83L1487.81 122.83zM1553.63 160.83L1586.54 179.83L1586.54 217.83L1553.63 236.83L1520.72 217.83L1520.72 179.83zM1520.72 217.83L1553.63 236.83L1553.63 274.83L1520.72 293.83L1487.81 274.83L1487.81 236.83zM1520.72 445.83L1553.63 464.83L1553.63 502.83L1520.72 521.83L1487.81 502.83L1487.81 464.83zM1553.63 502.83L1586.54 521.83L1586.54 559.83L1553.63 578.83L1520.72 559.83L1520.72 521.83zM1553.63 616.83L1586.54 635.83L1586.54 673.83L1553.63 692.83L1520.72 673.83L1520.72 635.83zM1520.72 673.83L1553.63 692.83L1553.63 730.83L1520.72 749.83L1487.81 730.83L1487.81 692.83zM1553.63 730.83L1586.54 749.83L1586.54 787.83L1553.63 806.83L1520.72 787.83L1520.72 749.83zM1520.72 901.83L1553.63 920.83L1553.63 958.83L1520.72 977.83L1487.81 958.83L1487.81 920.83zM1553.63 958.83L1586.54 977.83L1586.54 1015.83L1553.63 1034.83L1520.72 1015.83L1520.72 977.83zM1520.72 1015.83L1553.63 1034.83L1553.63 1072.83L1520.72 1091.83L1487.81 1072.83L1487.81 1034.83zM1619.45 46.83L1652.36 65.83L1652.36 103.83L1619.45 122.83L1586.54 103.83L1586.54 65.83zM1619.45 160.83L1652.36 179.83L1652.36 217.83L1619.45 236.83L1586.54 217.83L1586.54 179.83zM1619.45 274.83L1652.36 293.83L1652.36 331.83L1619.45 350.83L1586.54 331.83L1586.54 293.83zM1586.54 331.83L1619.45 350.83L1619.45 388.83L1586.54 407.83L1553.63 388.83L1553.63 350.83zM1619.45 388.83L1652.36 407.83L1652.36 445.83L1619.45 464.83L1586.54 445.83L1586.54 407.83zM1619.45 502.83L1652.36 521.83L1652.36 559.83L1619.45 578.83L1586.54 559.83L1586.54 521.83zM1586.54 673.83L1619.45 692.83L1619.45 730.83L1586.54 749.83L1553.63 730.83L1553.63 692.83zM1586.54 787.83L1619.45 806.83L1619.45 844.83L1586.54 863.83L1553.63 844.83L1553.63 806.83zM1652.36 103.83L1685.26 122.83L1685.26 160.83L1652.36 179.83L1619.45 160.83L1619.45 122.83zM1652.36 217.83L1685.26 236.83L1685.26 274.83L1652.36 293.83L1619.45 274.83L1619.45 236.83zM1652.36 331.83L1685.26 350.83L1685.26 388.83L1652.36 407.83L1619.45 388.83L1619.45 350.83zM1685.26 388.83L1718.17 407.83L1718.17 445.83L1685.26 464.83L1652.36 445.83L1652.36 407.83zM1685.26 616.83L1718.17 635.83L1718.17 673.83L1685.26 692.83L1652.36 673.83L1652.36 635.83zM1685.26 958.83L1718.17 977.83L1718.17 1015.83L1685.26 1034.83L1652.36 1015.83L1652.36 977.83zM1652.36 1015.83L1685.26 1034.83L1685.26 1072.83L1652.36 1091.83L1619.45 1072.83L1619.45 1034.83zM1718.17 -10.17L1751.08 8.83L1751.08 46.83L1718.17 65.83L1685.26 46.83L1685.26 8.83zM1718.17 217.83L1751.08 236.83L1751.08 274.83L1718.17 293.83L1685.26 274.83L1685.26 236.83zM1751.08 274.83L1783.99 293.83L1783.99 331.83L1751.08 350.83L1718.17 331.83L1718.17 293.83zM1751.08 502.83L1783.99 521.83L1783.99 559.83L1751.08 578.83L1718.17 559.83L1718.17 521.83zM1718.17 559.83L1751.08 578.83L1751.08 616.83L1718.17 635.83L1685.26 616.83L1685.26 578.83zM1751.08 616.83L1783.99 635.83L1783.99 673.83L1751.08 692.83L1718.17 673.83L1718.17 635.83zM1718.17 673.83L1751.08 692.83L1751.08 730.83L1718.17 749.83L1685.26 730.83L1685.26 692.83zM1751.08 730.83L1783.99 749.83L1783.99 787.83L1751.08 806.83L1718.17 787.83L1718.17 749.83zM1718.17 787.83L1751.08 806.83L1751.08 844.83L1718.17 863.83L1685.26 844.83L1685.26 806.83zM1718.17 901.83L1751.08 920.83L1751.08 958.83L1718.17 977.83L1685.26 958.83L1685.26 920.83zM1751.08 958.83L1783.99 977.83L1783.99 1015.83L1751.08 1034.83L1718.17 1015.83L1718.17 977.83zM1816.9 46.83L1849.81 65.83L1849.81 103.83L1816.9 122.83L1783.99 103.83L1783.99 65.83zM1816.9 160.83L1849.81 179.83L1849.81 217.83L1816.9 236.83L1783.99 217.83L1783.99 179.83zM1783.99 217.83L1816.9 236.83L1816.9 274.83L1783.99 293.83L1751.08 274.83L1751.08 236.83zM1816.9 274.83L1849.81 293.83L1849.81 331.83L1816.9 350.83L1783.99 331.83L1783.99 293.83zM1783.99 559.83L1816.9 578.83L1816.9 616.83L1783.99 635.83L1751.08 616.83L1751.08 578.83zM1816.9 616.83L1849.81 635.83L1849.81 673.83L1816.9 692.83L1783.99 673.83L1783.99 635.83zM1783.99 787.83L1816.9 806.83L1816.9 844.83L1783.99 863.83L1751.08 844.83L1751.08 806.83zM1816.9 844.83L1849.81 863.83L1849.81 901.83L1816.9 920.83L1783.99 901.83L1783.99 863.83zM1849.81 -10.17L1882.72 8.83L1882.72 46.83L1849.81 65.83L1816.9 46.83L1816.9 8.83zM1882.72 160.83L1915.63 179.83L1915.63 217.83L1882.72 236.83L1849.81 217.83L1849.81 179.83zM1882.72 274.83L1915.63 293.83L1915.63 331.83L1882.72 350.83L1849.81 331.83L1849.81 293.83zM1882.72 502.83L1915.63 521.83L1915.63 559.83L1882.72 578.83L1849.81 559.83L1849.81 521.83zM1849.81 559.83L1882.72 578.83L1882.72 616.83L1849.81 635.83L1816.9 616.83L1816.9 578.83zM1882.72 616.83L1915.63 635.83L1915.63 673.83L1882.72 692.83L1849.81 673.83L1849.81 635.83zM1849.81 673.83L1882.72 692.83L1882.72 730.83L1849.81 749.83L1816.9 730.83L1816.9 692.83zM1882.72 730.83L1915.63 749.83L1915.63 787.83L1882.72 806.83L1849.81 787.83L1849.81 749.83zM1849.81 787.83L1882.72 806.83L1882.72 844.83L1849.81 863.83L1816.9 844.83L1816.9 806.83zM1882.72 844.83L1915.63 863.83L1915.63 901.83L1882.72 920.83L1849.81 901.83L1849.81 863.83zM1849.81 901.83L1882.72 920.83L1882.72 958.83L1849.81 977.83L1816.9 958.83L1816.9 920.83zM1915.63 103.83L1948.54 122.83L1948.54 160.83L1915.63 179.83L1882.72 160.83L1882.72 122.83zM1915.63 217.83L1948.54 236.83L1948.54 274.83L1915.63 293.83L1882.72 274.83L1882.72 236.83zM1948.54 274.83L1981.45 293.83L1981.45 331.83L1948.54 350.83L1915.63 331.83L1915.63 293.83zM1915.63 331.83L1948.54 350.83L1948.54 388.83L1915.63 407.83L1882.72 388.83L1882.72 350.83zM1915.63 445.83L1948.54 464.83L1948.54 502.83L1915.63 521.83L1882.72 502.83L1882.72 464.83zM1948.54 502.83L1981.45 521.83L1981.45 559.83L1948.54 578.83L1915.63 559.83L1915.63 521.83zM1915.63 559.83L1948.54 578.83L1948.54 616.83L1915.63 635.83L1882.72 616.83L1882.72 578.83zM1948.54 730.83L1981.45 749.83L1981.45 787.83L1948.54 806.83L1915.63 787.83L1915.63 749.83zM1915.63 901.83L1948.54 920.83L1948.54 958.83L1915.63 977.83L1882.72 958.83L1882.72 920.83zM1981.45 103.83L2014.36 122.83L2014.36 160.83L1981.45 179.83L1948.54 160.83L1948.54 122.83zM2014.36 160.83L2047.27 179.83L2047.27 217.83L2014.36 236.83L1981.45 217.83L1981.45 179.83zM2014.36 388.83L2047.27 407.83L2047.27 445.83L2014.36 464.83L1981.45 445.83L1981.45 407.83zM1981.45 445.83L2014.36 464.83L2014.36 502.83L1981.45 521.83L1948.54 502.83L1948.54 464.83zM2014.36 502.83L2047.27 521.83L2047.27 559.83L2014.36 578.83L1981.45 559.83L1981.45 521.83zM1981.45 559.83L2014.36 578.83L2014.36 616.83L1981.45 635.83L1948.54 616.83L1948.54 578.83zM2014.36 616.83L2047.27 635.83L2047.27 673.83L2014.36 692.83L1981.45 673.83L1981.45 635.83zM1981.45 673.83L2014.36 692.83L2014.36 730.83L1981.45 749.83L1948.54 730.83L1948.54 692.83zM1981.45 787.83L2014.36 806.83L2014.36 844.83L1981.45 863.83L1948.54 844.83L1948.54 806.83zM2047.27 -10.17L2080.18 8.83L2080.18 46.83L2047.27 65.83L2014.36 46.83L2014.36 8.83zM2080.18 46.83L2113.09 65.83L2113.09 103.83L2080.18 122.83L2047.27 103.83L2047.27 65.83zM2047.27 103.83L2080.18 122.83L2080.18 160.83L2047.27 179.83L2014.36 160.83L2014.36 122.83zM2047.27 217.83L2080.18 236.83L2080.18 274.83L2047.27 293.83L2014.36 274.83L2014.36 236.83zM2047.27 331.83L2080.18 350.83L2080.18 388.83L2047.27 407.83L2014.36 388.83L2014.36 350.83zM2080.18 388.83L2113.09 407.83L2113.09 445.83L2080.18 464.83L2047.27 445.83L2047.27 407.83zM2047.27 673.83L2080.18 692.83L2080.18 730.83L2047.27 749.83L2014.36 730.83L2014.36 692.83zM2080.18 730.83L2113.09 749.83L2113.09 787.83L2080.18 806.83L2047.27 787.83L2047.27 749.83zM2047.27 901.83L2080.18 920.83L2080.18 958.83L2047.27 977.83L2014.36 958.83L2014.36 920.83zM2047.27 1015.83L2080.18 1034.83L2080.18 1072.83L2047.27 1091.83L2014.36 1072.83L2014.36 1034.83zM2146 46.83L2178.91 65.83L2178.91 103.83L2146 122.83L2113.09 103.83L2113.09 65.83zM2113.09 103.83L2146 122.83L2146 160.83L2113.09 179.83L2080.18 160.83L2080.18 122.83zM2146 160.83L2178.91 179.83L2178.91 217.83L2146 236.83L2113.09 217.83L2113.09 179.83zM2113.09 217.83L2146 236.83L2146 274.83L2113.09 293.83L2080.18 274.83L2080.18 236.83zM2146 388.83L2178.91 407.83L2178.91 445.83L2146 464.83L2113.09 445.83L2113.09 407.83zM2113.09 559.83L2146 578.83L2146 616.83L2113.09 635.83L2080.18 616.83L2080.18 578.83zM2146 616.83L2178.91 635.83L2178.91 673.83L2146 692.83L2113.09 673.83L2113.09 635.83zM2113.09 673.83L2146 692.83L2146 730.83L2113.09 749.83L2080.18 730.83L2080.18 692.83zM2113.09 787.83L2146 806.83L2146 844.83L2113.09 863.83L2080.18 844.83L2080.18 806.83zM2113.09 901.83L2146 920.83L2146 958.83L2113.09 977.83L2080.18 958.83L2080.18 920.83zM2178.91 -10.17L2211.82 8.83L2211.82 46.83L2178.91 65.83L2146 46.83L2146 8.83zM2211.82 46.83L2244.73 65.83L2244.73 103.83L2211.82 122.83L2178.91 103.83L2178.91 65.83zM2211.82 274.83L2244.73 293.83L2244.73 331.83L2211.82 350.83L2178.91 331.83L2178.91 293.83zM2211.82 502.83L2244.73 521.83L2244.73 559.83L2211.82 578.83L2178.91 559.83L2178.91 521.83zM2178.91 787.83L2211.82 806.83L2211.82 844.83L2178.91 863.83L2146 844.83L2146 806.83z" stroke="rgba(226, 233, 241, 0.93)" stroke-width="2"></path></g><defs><mask id="SvgjsMask1003"><rect width="2200" height="1000" fill="#ffffff"></rect></mask></defs></svg>